<?xml version="1.0" standalone="no"?>
<!DOCTYPE svg PUBLIC "-//W3C//DTD SVG 1.1//EN" "http://www.w3.org/Graphics/SVG/1.1/DTD/svg11.dtd" >
<svg xmlns="http://www.w3.org/2000/svg">
<metadata>Generated by IcoMoon</metadata>
<defs>
<font id="icomoon" horiz-adv-x="1024">
<font-face units-per-em="1024" ascent="960" descent="-64" />
<missing-glyph horiz-adv-x="1024" />
<glyph unicode="&#x20;" horiz-adv-x="512" d="" />
<glyph unicode="&#xe900;" glyph-name="quote-left" d="M896 512h-128v48c0 61.8 50.2 112 112 112h32c44.2 0 80 35.8 80 80v64c0 44.2-35.8 80-80 80h-32c-185.2 0-336-150.8-336-336v-432c0-70.6 57.4-128 128-128h224c70.6 0 128 57.4 128 128v256c0 70.6-57.4 128-128 128zM960 128c0-35.4-28.6-64-64-64h-224c-35.4 0-64 28.6-64 64v432c0 150.2 121.8 272 272 272h32c8.8 0 16-7.2 16-16v-64c0-8.8-7.2-16-16-16h-32c-97.2 0-176-78.8-176-176v-112h192c35.4 0 64-28.6 64-64v-256zM352 512h-128v48c0 61.8 50.2 112 112 112h32c44.2 0 80 35.8 80 80v64c0 44.2-35.8 80-80 80h-32c-185.2 0-336-150.8-336-336v-432c0-70.6 57.4-128 128-128h224c70.6 0 128 57.4 128 128v256c0 70.6-57.4 128-128 128zM416 128c0-35.4-28.6-64-64-64h-224c-35.4 0-64 28.6-64 64v432c0 150.2 121.8 272 272 272h32c8.8 0 16-7.2 16-16v-64c0-8.8-7.2-16-16-16h-32c-97.2 0-176-78.8-176-176v-112h192c35.4 0 64-28.6 64-64v-256z" />
<glyph unicode="&#xe901;" glyph-name="garant" d="M420.864 938.598c-23.859-5.12-43.725-19.354-56.422-40.55-6.963-11.571-14.848-19.763-22.938-23.45-5.325-2.56-7.782-2.97-20.48-3.686-15.565-0.922-19.558-1.434-28.16-3.789-12.902-3.584-23.859-10.035-34.816-20.48-17.203-16.179-25.19-34.611-26.214-60.211-0.614-14.746-1.638-20.173-5.222-27.443-3.789-7.578-9.728-13.312-20.89-20.173-17.306-10.65-28.774-23.040-36.147-39.117-5.939-12.698-7.168-19.046-7.168-35.635-0.102-13.414 0.205-15.77 2.765-23.757 1.536-4.915 5.53-14.234 8.909-20.582 10.854-20.89 10.854-29.491-0.41-51.917-10.035-19.968-11.264-24.986-11.264-43.52 0.102-13.619 0.41-16.384 2.765-24.166 3.891-12.8 12.288-26.829 21.197-35.738 5.018-4.915 11.776-10.035 20.992-15.667 10.138-6.246 14.234-10.138 18.33-17.203 3.994-7.066 5.734-13.824 5.734-23.45 0.205-37.376 17.408-66.048 48.538-80.998 9.933-4.813 9.626-2.867 2.662-17.818-7.68-16.384-16.998-36.557-31.949-69.12-1.741-3.686-4.608-9.83-6.451-13.824-1.843-3.891-7.168-15.462-11.776-25.6s-10.752-23.245-13.517-29.184c-2.867-5.939-5.427-11.674-5.939-12.8-1.331-3.379-20.275-44.237-25.395-54.784-4.301-8.909-4.71-10.342-4.813-17.51 0-6.656 0.41-8.294 2.765-11.878 1.741-2.662 4.608-5.12 8.090-6.861l5.427-2.662 136.294-0.102 38.707-48.435c33.69-42.291 39.219-48.845 43.213-50.688 8.806-4.096 19.968-1.741 25.805 5.427 1.434 1.843 3.891 6.554 5.632 10.445 1.638 3.891 6.144 14.234 9.933 22.938 3.891 8.704 10.138 23.040 13.926 31.744s8.090 18.637 9.626 22.016c1.536 3.379 8.090 18.227 14.438 33.075 8.602 19.661 11.981 26.419 12.595 25.19 1.024-1.843 15.36-34.202 21.709-49.050 2.355-5.632 5.325-12.493 6.656-15.36 1.331-2.765 3.584-8.090 5.12-11.776 3.072-7.168 16.794-38.605 20.173-46.080 1.229-2.56 3.584-8.090 5.325-12.288 4.301-9.933 7.168-13.517 13.107-16.384 6.144-2.867 14.541-2.56 20.070 0.922 2.355 1.434 17.613 19.661 42.189 50.381l38.502 48.026h67.277c44.646 0 68.608 0.41 71.27 1.126 5.837 1.638 12.288 8.602 13.824 15.053 1.638 6.758 1.024 9.318-6.246 25.293-3.379 7.27-7.475 16.077-9.011 19.456s-3.994 8.704-5.427 11.776c-1.331 3.072-7.066 15.36-12.493 27.136-5.53 11.878-11.264 24.269-12.8 27.648-6.656 14.643-8.499 18.534-17.92 38.912-9.523 20.48-13.005 27.955-17.715 38.4-1.126 2.56-7.168 15.565-13.414 29.082-6.246 13.414-11.366 24.576-11.366 24.781s0.512 0.41 1.126 0.41c2.048 0 15.36 7.168 20.89 11.264 12.595 9.318 25.498 26.829 29.798 40.653 2.662 8.602 4.506 20.992 4.506 30.618 0 11.571 2.458 20.275 7.885 28.058 4.198 6.042 7.68 8.806 21.402 17.408 19.354 12.186 32.256 29.901 38.502 52.736 1.946 7.373 1.741 33.075-0.41 40.55s-5.53 15.258-10.24 23.552c-7.578 13.619-9.523 24.064-6.554 35.43 0.819 2.97 3.891 10.035 6.963 15.872 9.728 18.432 11.571 25.6 11.571 44.339 0 11.776-0.41 15.77-2.355 22.323-6.246 21.811-19.661 38.707-41.062 51.917-11.981 7.373-17.51 13.005-21.811 22.118-2.867 6.144-3.174 7.987-3.994 22.221-0.922 17.101-2.97 27.034-7.987 37.99-8.909 19.661-28.058 37.274-48.128 44.237-10.035 3.482-15.974 4.506-32.461 5.427-13.005 0.717-15.053 1.126-20.992 3.891-9.523 4.403-13.312 8.192-22.938 22.733-15.872 24.166-33.792 36.864-58.675 41.677-19.661 3.789-38.195 0.41-58.573-10.547-11.571-6.246-18.534-8.499-26.010-8.499-8.806 0-12.493 1.229-28.774 9.318-21.811 10.854-38.605 13.517-58.88 9.216zM449.536 896.307c1.946-0.614 9.318-3.994 16.384-7.578 23.45-11.878 42.701-14.234 65.536-7.987 3.072 0.819 12.083 4.813 19.968 8.704 19.149 9.523 26.112 10.65 39.936 6.349 10.445-3.277 17.101-9.114 24.576-21.402 10.547-17.51 21.094-27.955 35.942-35.942 12.493-6.656 23.757-9.421 41.882-10.547 8.499-0.41 16.998-1.331 19.046-1.946 5.939-1.843 15.77-8.704 19.661-13.926 6.246-8.090 8.090-14.438 9.011-31.13 1.024-18.125 3.686-29.389 9.728-41.165 8.090-15.565 17.818-25.6 35.84-36.659 14.541-9.011 21.504-18.227 23.962-31.846 2.048-11.264 0-18.637-10.138-37.274-7.782-14.131-11.366-33.485-9.216-49.357 1.638-12.288 4.915-22.016 12.186-35.635 9.318-17.51 10.24-28.877 3.686-42.803-3.891-8.294-8.806-13.312-19.354-19.866-11.264-6.963-17.101-11.469-23.142-17.715-10.035-10.342-18.944-27.546-21.504-41.574-0.717-3.379-1.434-11.674-1.741-18.432-0.717-14.438-2.355-21.402-6.963-28.672-9.114-14.131-22.938-19.968-47.514-19.968-24.883 0-52.122-15.872-66.56-38.605-12.39-19.661-18.125-25.088-30.618-28.979-13.005-3.994-21.402-2.458-39.834 7.27-15.053 7.987-27.034 11.162-42.394 11.162s-27.341-3.174-42.394-11.162c-18.432-9.728-26.931-11.264-39.629-7.27-12.698 3.891-17.203 8.090-29.798 27.648-11.981 18.534-25.907 29.389-46.387 36.25-6.451 2.15-11.366 2.97-23.040 3.686-18.842 1.229-21.811 1.741-28.365 4.813-8.499 3.891-15.155 10.65-19.456 19.558-3.584 7.578-3.789 8.397-4.506 23.245-1.331 24.576-6.758 40.448-19.046 55.91-6.963 8.704-13.517 14.131-27.75 22.835-14.131 8.806-20.48 17.613-22.938 32.256-1.536 9.421 0.102 16.486 7.373 30.31 3.277 6.144 7.168 15.155 8.806 19.968 2.765 8.192 2.97 9.728 2.97 25.6 0 19.968-1.024 23.859-10.957 43.52-9.011 17.715-10.547 24.883-7.578 35.84 3.174 12.186 10.854 22.016 22.016 28.262 17.715 10.035 30.003 22.528 37.888 38.4 6.349 12.902 7.987 20.48 9.216 41.37 0.819 13.312 1.229 15.565 3.891 21.504 3.891 8.397 8.704 13.926 15.974 18.227 7.578 4.608 14.746 6.349 25.907 6.349 24.269 0 45.67 8.090 62.259 23.552 5.632 5.222 10.342 11.366 17.306 22.63 7.68 12.288 14.643 18.432 24.781 21.709 8.806 2.867 16.998 2.97 25.088 0.512zM342.016 313.651c7.27-3.072 13.926-9.626 19.968-19.456 12.39-20.070 22.323-29.594 39.629-37.683 13.824-6.451 19.558-7.68 36.659-7.68 18.33 0 22.835 1.229 42.496 10.854 15.36 7.578 23.142 9.728 31.13 8.602 5.222-0.717 11.469-2.458 12.698-3.482 0.717-0.717-1.946-7.885-7.578-20.275-1.741-3.789-4.915-11.059-7.066-16.179-2.15-5.018-7.68-17.715-12.288-28.16s-9.523-21.606-10.854-24.781c-1.331-3.174-3.891-8.909-5.632-12.8-1.741-3.789-4.915-11.059-7.066-16.179-2.15-5.018-7.68-17.715-12.288-28.16s-9.523-21.606-10.957-24.986c-1.331-3.277-4.096-9.421-6.042-13.619-1.843-4.198-3.482-7.782-3.482-8.090 0-0.512-19.558-44.851-19.968-45.261-0.205-0.205-14.234 16.896-31.13 38.093-24.474 30.515-31.744 38.912-35.123 40.755-4.403 2.355-4.608 2.355-61.338 2.867l-56.934 0.512 3.277 7.168c1.843 3.994 7.885 16.896 13.312 28.672 5.53 11.878 11.264 24.269 12.8 27.648 6.656 14.643 8.499 18.534 17.92 38.912 9.933 21.299 13.414 28.979 17.92 38.912 1.331 2.867 4.71 10.24 7.68 16.384 2.867 6.246 9.318 20.070 14.234 30.822 10.138 22.016 8.602 20.582 18.022 16.589zM690.688 302.49c23.757-51.507 31.13-67.584 36.864-79.77 3.482-7.578 10.445-22.528 15.36-33.28 4.915-10.65 11.571-25.19 14.848-32.256s9.728-20.89 14.234-30.72l8.294-17.92-57.139-0.512c-56.422-0.512-57.037-0.512-61.235-2.765-2.355-1.229-5.837-4.301-7.68-6.656-5.222-6.554-6.246-7.885-10.138-12.595-1.946-2.355-13.517-16.794-25.6-32.051s-22.221-27.75-22.528-27.75c-0.307-0.102-1.536 2.355-2.662 5.325-1.229 2.867-10.65 24.474-20.89 47.821s-20.89 47.821-23.654 54.272c-2.765 6.451-5.53 12.698-6.042 13.824s-3.174 7.168-5.939 13.312l-4.915 11.264 9.421 21.504c5.222 11.878 10.65 24.269 12.186 27.648 1.434 3.379 4.813 10.957 7.373 16.896l4.608 10.752h13.005c14.131 0.102 20.173 1.229 31.846 5.939 15.872 6.349 31.13 19.149 39.424 32.973 7.475 12.39 12.39 18.534 18.022 22.221 5.427 3.584 13.824 7.168 15.667 6.554 0.512-0.102 3.789-6.451 7.27-14.029zM653.926 734.208c-0.512-1.434-10.138-16.589-42.598-67.072-4.813-7.578-14.746-23.040-21.914-34.304s-20.48-32.154-29.594-46.387c-9.114-14.234-23.757-37.069-32.461-50.688s-20.992-32.973-27.443-43.008l-11.674-18.125-4.301 3.789c-6.656 5.939-45.568 41.062-50.79 45.773-2.56 2.355-20.992 18.944-40.96 36.966-19.968 17.92-36.454 33.075-36.659 33.485-0.717 1.741-2.253 0.41-13.517-12.083-17.613-19.558-17.101-18.842-15.155-20.275 0.922-0.614 5.632-4.915 10.65-9.421 5.018-4.608 16.691-15.155 26.010-23.45 9.318-8.397 20.787-18.739 25.6-23.040s25.293-22.733 45.568-40.96c20.275-18.227 42.291-37.99 48.947-43.93s12.595-10.854 13.21-10.854c0.717 0 8.294 11.059 16.896 24.576 8.704 13.517 22.835 35.635 31.437 49.152s20.48 31.949 26.214 40.96c12.698 19.661 35.738 55.706 56.627 88.576 8.397 13.21 17.306 27.034 19.661 30.72s11.878 18.432 20.992 32.768c9.216 14.336 18.022 28.16 19.661 30.618 2.458 3.686 2.765 4.71 1.638 5.837-1.946 1.843-33.587 21.914-34.509 21.914-0.512 0-1.229-0.717-1.536-1.536z" />
<glyph unicode="&#xe902;" glyph-name="bells" horiz-adv-x="896" d="M896 192c-0.2-32.8-26-64-64.2-64h-767.64c-38.16 0-63.98 31.2-64.16 64-0.001 0.1-0.001 0.219-0.001 0.338 0 16.713 6.56 31.893 17.245 43.107l-0.024-0.025c38.64 41.52 110.94 104 110.94 308.58 0 155.4 108.96 279.8 255.88 310.32v41.68c0 35.346 28.654 64 64 64s64-28.654 64-64v0-41.68c146.8-30.52 255.76-154.92 255.76-310.32 0-204.6 72.3-267.060 110.94-308.58 10.685-11.2 17.261-26.402 17.261-43.14 0-0.099 0-0.197-0.001-0.296v0.015zM320 64h256c0-70.692-57.308-128-128-128s-128 57.308-128 128v0z" />
<glyph unicode="&#xe903;" glyph-name="stop1" horiz-adv-x="896" d="M800 896h-704c-53 0-96-43-96-96v-704c0-53 43-96 96-96h704c53 0 96 43 96 96v704c0 53-43 96-96 96zM832 96c0-17.6-14.4-32-32-32h-704c-17.6 0-32 14.4-32 32v704c0 17.6 14.4 32 32 32h704c17.6 0 32-14.4 32-32v-704z" />
<glyph unicode="&#xe904;" glyph-name="code" horiz-adv-x="1152" d="M469.6-63.4l-77.6 22.6c-8.4 2.4-13.4 11.4-11 19.8l281.6 969.4c2.4 8.4 11.4 13.4 19.8 11l77.6-22.6c8.4-2.4 13.4-11.4 11-19.8l-281.6-969.4c-2.4-8.6-11.2-13.4-19.8-11zM303.2 178.8l54.4 58c6.2 6.6 5.6 17-1 23l-212.2 188.2 212.2 188.2c6.8 6 7.2 16.4 1 23l-54.4 58c-6 6.4-16.2 6.8-22.6 0.8l-275.6-258.4c-6.8-6.4-6.8-17 0-23.4l275.6-258.2c6.4-6 16.4-5.6 22.6 0.8zM871.4 178l275.4 258.2c6.8 6.4 6.8 17 0 23.4l-275.4 258.4c-6.4 6-16.6 5.8-22.6-0.8l-54.4-58c-6.2-6.6-5.6-17 1-23l212.2-188.2-212.2-188.2c-6.8-6-7.2-16.4-1-23l54.4-58c6.2-6.4 16.2-6.8 22.6-0.8z" />
<glyph unicode="&#xe905;" glyph-name="youtube1" horiz-adv-x="1152" d="M1099.31 711.834c-12.562 47.3-49.574 84.552-96.568 97.194-85.18 22.972-426.742 22.972-426.742 22.972s-341.56 0-426.742-22.972c-46.994-12.644-84.006-49.894-96.568-97.194-22.824-85.734-22.824-264.61-22.824-264.61s0-178.876 22.824-264.61c12.562-47.3 49.574-83 96.568-95.642 85.182-22.972 426.742-22.972 426.742-22.972s341.56 0 426.742 22.972c46.994 12.642 84.006 48.342 96.568 95.642 22.824 85.734 22.824 264.61 22.824 264.61s0 178.876-22.824 264.61zM464.29 284.818v324.812l285.478-162.41-285.478-162.402z" />
<glyph unicode="&#xe906;" glyph-name="heading" d="M864 800v-704h64c17.673 0 32-14.327 32-32v0-32c0-17.673-14.327-32-32-32v0h-256c-17.673 0-32 14.327-32 32v0 32c0 17.673 14.327 32 32 32v0h64v304h-448v-304h64c17.673 0 32-14.327 32-32v0-32c0-17.673-14.327-32-32-32v0h-256c-17.673 0-32 14.327-32 32v0 32c0 17.673 14.327 32 32 32v0h64v704h-64c-17.673 0-32 14.327-32 32v0 32c0 17.673 14.327 32 32 32v0h256c17.673 0 32-14.327 32-32v0-32c0-17.673-14.327-32-32-32v0h-64v-304h448v304h-64c-17.673 0-32 14.327-32 32v0 32c0 17.673 14.327 32 32 32v0h256c17.673 0 32-14.327 32-32v0-32c0-17.673-14.327-32-32-32v0z" />
<glyph unicode="&#xe907;" glyph-name="text" horiz-adv-x="896" d="M896 864v-144c0-8.837-7.163-16-16-16v0h-32c-8.837 0-16 7.163-16 16v0 112h-352v-768h144c8.837 0 16-7.163 16-16v0-32c0-8.837-7.163-16-16-16v0h-352c-8.837 0-16 7.163-16 16v0 32c0 8.837 7.163 16 16 16v0h144v768h-352v-112c0-8.837-7.163-16-16-16v0h-32c-8.837 0-16 7.163-16 16v0 144c0 17.673 14.327 32 32 32v0h832c17.673 0 32-14.327 32-32v0z" />
<glyph unicode="&#xe908;" glyph-name="arrow-square-up" horiz-adv-x="896" d="M201 473l230 230.2c9.4 9.4 24.6 9.4 34 0l230-230.2c9.4-9.4 9.4-24.6 0-34l-13.8-13.8c-9.4-9.4-25-9.4-34.2 0.4l-165 171v-380.6c0-13.2-10.8-24-24-24h-20c-13.2 0-24 10.8-24 24v380.6l-165-171.2c-9.4-9.6-24.8-9.8-34.2-0.4l-13.8 13.8c-9.4 9.6-9.4 24.8 0 34.2zM0 96v704c0 53 43 96 96 96h704c53 0 96-43 96-96v-704c0-53-43-96-96-96h-704c-53 0-96 43-96 96zM64 96c0-17.6 14.4-32 32-32h704c17.6 0 32 14.4 32 32v704c0 17.6-14.4 32-32 32h-704c-17.6 0-32-14.4-32-32v-704z" />
<glyph unicode="&#xe909;" glyph-name="arrow-square-right" horiz-adv-x="896" d="M473 695l230.2-230c9.4-9.4 9.4-24.6 0-34l-230.2-230c-9.4-9.4-24.6-9.4-34 0l-13.8 13.8c-9.4 9.4-9.4 25 0.4 34.2l171.2 165h-380.8c-13.2 0-24 10.8-24 24v20c0 13.2 10.8 24 24 24h380.6l-171.2 165c-9.6 9.4-9.8 24.8-0.4 34.2l13.8 13.8c9.6 9.4 24.8 9.4 34.2 0zM96 896h704c53 0 96-43 96-96v-704c0-53-43-96-96-96h-704c-53 0-96 43-96 96v704c0 53 43 96 96 96zM96 832c-17.6 0-32-14.4-32-32v-704c0-17.6 14.4-32 32-32h704c17.6 0 32 14.4 32 32v704c0 17.6-14.4 32-32 32h-704z" />
<glyph unicode="&#xe90a;" glyph-name="arrow-square-left" horiz-adv-x="896" d="M423 201l-230.2 230c-9.4 9.4-9.4 24.6 0 34l230.2 230c9.4 9.4 24.6 9.4 34 0l13.8-13.8c9.4-9.4 9.4-25-0.4-34.2l-171-165h380.6c13.2 0 24-10.8 24-24v-20c0-13.2-10.8-24-24-24h-380.6l171.2-165c9.6-9.4 9.8-24.8 0.4-34.2l-13.8-13.8c-9.6-9.4-24.8-9.4-34.2 0zM800 0h-704c-53 0-96 43-96 96v704c0 53 43 96 96 96h704c53 0 96-43 96-96v-704c0-53-43-96-96-96zM800 64c17.6 0 32 14.4 32 32v704c0 17.6-14.4 32-32 32h-704c-17.6 0-32-14.4-32-32v-704c0-17.6 14.4-32 32-32h704z" />
<glyph unicode="&#xe90b;" glyph-name="arrow-square-down" horiz-adv-x="896" d="M695 423l-230-230.2c-9.4-9.4-24.6-9.4-34 0l-230 230.2c-9.4 9.4-9.4 24.6 0 34l13.8 13.8c9.4 9.4 25 9.4 34.2-0.4l165-171.2v380.8c0 13.2 10.8 24 24 24h20c13.2 0 24-10.8 24-24v-380.6l165 171.2c9.4 9.6 24.8 9.8 34.2 0.4l13.8-13.8c9.4-9.6 9.4-24.8 0-34.2zM896 800v-704c0-53-43-96-96-96h-704c-53 0-96 43-96 96v704c0 53 43 96 96 96h704c53 0 96-43 96-96zM832 800c0 17.6-14.4 32-32 32h-704c-17.6 0-32-14.4-32-32v-704c0-17.6 14.4-32 32-32h704c17.6 0 32 14.4 32 32v704z" />
<glyph unicode="&#xe90c;" glyph-name="analytics" horiz-adv-x="1152" d="M160 256h-128c-17.68 0-32-14.32-32-32v-256c0-17.68 14.32-32 32-32h128c17.68 0 32 14.32 32 32v256c0 17.68-14.32 32-32 32zM128 0h-64v192h64v-192zM1120 576h-128c-17.68 0-32-14.32-32-32v-576c0-17.68 14.32-32 32-32h128c17.68 0 32 14.32 32 32v576c0 17.68-14.32 32-32 32zM1088 0h-64v512h64v-512zM1005.54 782.64c14.7-9.12 31.88-14.64 50.46-14.64 53.020 0 96 42.98 96 96s-42.98 96-96 96-96-42.98-96-96c0-11.020 2.24-21.42 5.66-31.28l-179.2-143.36c-14.7 9.14-31.88 14.66-50.46 14.66s-35.76-5.52-50.46-14.66l-179.2 143.36c3.42 9.84 5.66 20.26 5.66 31.28 0 53.020-42.98 96-96 96s-96-42.98-96-96c0-14.8 3.62-28.64 9.6-41.16l-192.44-192.44c-12.52 5.98-26.36 9.6-41.16 9.6-53.020 0-96-42.98-96-96s42.98-96 96-96 96 42.98 96 96c0 14.8-3.62 28.64-9.6 41.16l192.44 192.44c12.52-5.98 26.36-9.6 41.16-9.6 18.58 0 35.76 5.52 50.46 14.66l179.2-143.36c-3.42-9.86-5.66-20.28-5.66-31.3 0-53.020 42.98-96 96-96s96 42.98 96 96c0 11.020-2.24 21.44-5.66 31.3l179.2 143.34zM1056 896c17.64 0 32-14.36 32-32s-14.36-32-32-32-32 14.36-32 32 14.36 32 32 32zM96 512c-17.64 0-32 14.36-32 32s14.36 32 32 32 32-14.36 32-32-14.36-32-32-32zM416 832c-17.64 0-32 14.36-32 32s14.36 32 32 32 32-14.36 32-32-14.36-32-32-32zM736 576c-17.64 0-32 14.36-32 32s14.36 32 32 32 32-14.36 32-32-14.36-32-32-32zM480 576h-128c-17.68 0-32-14.32-32-32v-576c0-17.68 14.32-32 32-32h128c17.68 0 32 14.32 32 32v576c0 17.68-14.32 32-32 32zM448 0h-64v512h64v-512zM800 320h-128c-17.68 0-32-14.32-32-32v-320c0-17.68 14.32-32 32-32h128c17.68 0 32 14.32 32 32v320c0 17.68-14.32 32-32 32zM768 0h-64v256h64v-256z" />
<glyph unicode="&#xe90d;" glyph-name="spinner-third" d="M920.23 212.308l-13.882 8.016c-11.092 6.404-15.128 20.354-9.322 31.772 65.942 129.676 62.334 285.462-10.83 411.908-73.008 126.712-206.236 207.752-351.6 215.402-12.692 0.668-22.596 11.242-22.596 23.952v16.024c0 13.808 11.616 24.674 25.406 23.964 167.104-8.612 320.314-101.722 404.212-247.34 84.138-145.406 88.166-324.644 12.068-473.676-6.28-12.298-21.5-16.924-33.456-10.022z" />
<glyph unicode="&#xe90e;" glyph-name="spinner" d="M576 896c0-35.346-28.654-64-64-64s-64 28.654-64 64 28.654 64 64 64 64-28.654 64-64zM512 64c-35.346 0-64-28.654-64-64s28.654-64 64-64 64 28.654 64 64-28.654 64-64 64zM1024 448c0 35.346-28.654 64-64 64s-64-28.654-64-64 28.654-64 64-64 64 28.654 64 64zM128 448c0 35.346-28.654 64-64 64s-64-28.654-64-64 28.654-64 64-64 64 28.654 64 64zM195.216 195.216c-35.346 0-64-28.654-64-64s28.654-64 64-64 64 28.654 64 64-28.654 64-64 64zM828.784 195.216c-35.346 0-64-28.654-64-64s28.654-64 64-64 64 28.654 64 64-28.654 64-64 64zM195.216 828.784c-35.346 0-64-28.654-64-64s28.654-64 64-64 64 28.654 64 64c0 35.346-28.654 64-64 64z" />
<glyph unicode="&#xe90f;" glyph-name="stars" d="M1018.105 521.923l-79.426 33.139-33.117 79.477c-1.782 3.535-5.383 5.918-9.541 5.918s-7.759-2.383-9.513-5.857l-0.028-0.061-33.121-79.477-79.422-33.139c-3.523-1.794-5.895-5.394-5.895-9.547s2.371-7.753 5.834-9.519l0.061-0.028 79.422-33.143 33.121-79.473c1.78-3.537 5.382-5.922 9.541-5.922s7.761 2.384 9.513 5.861l0.028 0.061 33.117 79.473 79.426 33.143c3.523 1.794 5.895 5.394 5.895 9.547s-2.371 7.753-5.834 9.519l-0.061 0.028zM728.601 425.84l-209.839 30.603-93.824 190.459c-7.55 15.264-23.014 25.577-40.887 25.577-0.107 0-0.215 0-0.322-0.001h0.016c-0.158 0.002-0.344 0.003-0.531 0.003-17.76 0-33.106-10.331-40.358-25.312l-0.117-0.267-93.824-190.459-209.651-30.603c-37.567-5.371-52.569-51.963-25.378-78.538l151.832-148.114-36.005-209.227c-0.441-2.392-0.693-5.144-0.693-7.956 0-25.366 20.529-45.938 45.88-46.006h0.006c0.002 0 0.004 0 0.007 0 7.826 0 15.188 1.989 21.608 5.489l-0.237-0.118 187.649 98.742 187.649-98.742c6.143-3.296 13.425-5.272 21.159-5.371h0.031c25.432 0.104 46.008 20.745 46.008 46.191 0 2.679-0.228 5.304-0.666 7.858l0.039-0.274-35.817 209.227 151.832 148.114c27.191 26.762 12.002 73.136-25.566 78.725zM533.576 221.423l35.192-206.291-185.023 97.556-185.023-97.556 35.192 206.291-149.394 146.271 206.776 30.166 92.637 187.679 92.387-187.679 206.839-30.166zM846.375 797.34l-97.188 48.625-48.563 97.688c-10.813 21.795-46.438 21.795-57.25 0l-48.563-97.282-97.188-48.625c-10.529-5.402-17.611-16.179-17.625-28.61v-0.002c0.054-12.537 7.105-23.414 17.448-28.932l0.177-0.086 97.188-48.625 48.563-97.282c5.37-10.593 16.156-17.738 28.618-17.793h0.007c0.032 0 0.071 0 0.109 0 12.454 0 23.233 7.171 28.433 17.609l0.083 0.184 48.563 97.282 97.188 48.625c10.537 5.392 17.625 16.175 17.625 28.612s-7.088 23.22-17.444 28.528l-0.181 0.084zM711 744.118c-6.244-3.195-11.196-8.161-14.29-14.232l-0.085-0.184-24.625-49.438-24.625 49.438c-3.243 6.21-8.177 11.157-14.192 14.328l-0.183 0.088-49.375 24.797 49.375 24.829c6.25 3.186 11.205 8.154 14.29 14.232l0.085 0.184 24.625 49.438 24.625-49.438c3.224-6.223 8.164-11.175 14.192-14.329l0.183-0.087 49.375-24.829z" />
<glyph unicode="&#xe910;" glyph-name="tag" d="M995.882 508.118l-423.764 423.764c-17.373 17.373-41.372 28.118-67.882 28.118h-408.236c-53.020 0-96-42.98-96-96v-408.236c0-26.51 10.745-50.509 28.118-67.882l423.764-423.764c37.49-37.49 98.274-37.492 135.764 0l408.236 408.236c37.49 37.49 37.49 98.274 0 135.764zM950.628 417.608l-408.236-408.236c-12.486-12.486-32.75-12.506-45.254 0l-423.766 423.766c-5.789 5.759-9.372 13.731-9.372 22.54 0 0.031 0 0.062 0 0.093v-0.005 408.234c0 17.644 14.356 32 32 32h408.236c8.548 0 16.584-3.328 22.628-9.372l423.764-423.764c12.476-12.478 12.476-32.78 0-45.256zM288 712c22.056 0 40-17.944 40-40s-17.944-40-40-40-40 17.944-40 40 17.944 40 40 40zM288 768c-53.020 0-96-42.98-96-96s42.98-96 96-96 96 42.98 96 96-42.98 96-96 96z" />
<glyph unicode="&#xe911;" glyph-name="facebook" horiz-adv-x="640" d="M558.28 384l28.44 185.32h-177.82v120.26c0 50.7 24.84 100.12 104.48 100.12h80.84v157.78s-73.36 12.52-143.5 12.52c-146.44 0-242.16-88.76-242.16-249.44v-141.24h-162.78v-185.32h162.78v-448h200.34v448z" />
<glyph unicode="&#xe912;" glyph-name="instagram" horiz-adv-x="896" d="M448.2 678c-127.2 0-229.8-102.6-229.8-229.8s102.6-229.8 229.8-229.8 229.8 102.6 229.8 229.8-102.6 229.8-229.8 229.8zM448.2 298.8c-82.2 0-149.4 67-149.4 149.4s67 149.4 149.4 149.4 149.4-67 149.4-149.4-67.2-149.4-149.4-149.4zM741 687.4c0-29.8-24-53.6-53.6-53.6-29.8 0-53.6 24-53.6 53.6s24 53.6 53.6 53.6 53.6-24 53.6-53.6zM893.2 633c-3.4 71.8-19.8 135.4-72.4 187.8-52.4 52.4-116 68.8-187.8 72.4-74 4.2-295.8 4.2-369.8 0-71.6-3.4-135.2-19.8-187.8-72.2s-68.8-116-72.4-187.8c-4.2-74-4.2-295.8 0-369.8 3.4-71.8 19.8-135.4 72.4-187.8s116-68.8 187.8-72.4c74-4.2 295.8-4.2 369.8 0 71.8 3.4 135.4 19.8 187.8 72.4 52.4 52.4 68.8 116 72.4 187.8 4.2 74 4.2 295.6 0 369.6zM797.6 184c-15.6-39.2-45.8-69.4-85.2-85.2-59-23.4-199-18-264.2-18s-205.4-5.2-264.2 18c-39.2 15.6-69.4 45.8-85.2 85.2-23.4 59-18 199-18 264.2s-5.2 205.4 18 264.2c15.6 39.2 45.8 69.4 85.2 85.2 59 23.4 199 18 264.2 18s205.4 5.2 264.2-18c39.2-15.6 69.4-45.8 85.2-85.2 23.4-59 18-199 18-264.2s5.4-205.4-18-264.2z" />
<glyph unicode="&#xe913;" glyph-name="twitter" d="M918.74 656.568c0.65-9.096 0.65-18.194 0.65-27.29 0-277.44-211.166-597.116-597.116-597.116-118.904 0-229.36 34.438-322.274 94.212 16.894-1.948 33.136-2.598 50.68-2.598 98.11 0 188.426 33.136 260.548 89.664-92.264 1.95-169.584 62.376-196.224 145.544 12.996-1.948 25.99-3.248 39.636-3.248 18.842 0 37.686 2.6 55.228 7.146-96.162 19.494-168.286 103.96-168.286 205.97v2.598c27.938-15.594 60.428-25.34 94.862-26.638-56.528 37.686-93.562 102.010-93.562 174.782 0 38.984 10.394 74.72 28.588 105.908 103.31-127.35 258.6-210.516 432.73-219.614-3.248 15.594-5.198 31.836-5.198 48.080 0 115.656 93.564 209.868 209.868 209.868 60.426 0 115.004-25.34 153.34-66.274 47.43 9.096 92.912 26.64 133.198 50.68-15.596-48.732-48.732-89.666-92.264-115.654 42.234 4.546 83.168 16.244 120.852 32.486-28.584-41.582-64.322-78.616-105.256-108.506z" />
<glyph unicode="&#xe914;" glyph-name="viber" d="M888 860.2c-25.4 23.4-128.2 98-357.4 99 0 0-270.2 16.2-401.8-104.6-73.2-73.2-99-180.6-101.8-313.6s-6.2-382.2 234-449.8h0.2l-0.2-103.2s-1.6-41.8 26-50.2c33.2-10.4 52.8 21.4 84.6 55.6 17.4 18.8 41.4 46.4 59.6 67.4 164.4-13.8 290.6 17.8 305 22.4 33.2 10.8 221 34.8 251.4 284 31.6 257.2-15.2 419.6-99.6 493zM915.8 386c-25.8-208-178-221.2-206-230.2-12-3.8-123-31.4-262.4-22.4 0 0-104-125.4-136.4-158-10.6-10.6-22.2-9.6-22 11.4 0 13.8 0.8 171.4 0.8 171.4-0.2 0-0.2 0 0 0-203.6 56.4-191.6 268.6-189.4 379.6s23.2 202 85.2 263.2c111.4 101 340.8 86 340.8 86 193.8-0.8 286.6-59.2 308.2-78.8 71.4-61.2 107.8-207.6 81.2-422.2zM637.8 547.6c0.8-17.2-25-18.4-25.8-1.2-2.2 44-22.8 65.4-65.2 67.8-17.2 1-15.6 26.8 1.4 25.8 55.8-3 86.8-35 89.6-92.4zM678.4 525c2 84.8-51 151.2-151.6 158.6-17 1.2-15.2 27 1.8 25.8 116-8.4 177.8-88.2 175.6-185-0.2-17.2-26.2-16.4-25.8 0.6zM772.4 498.2c0.2-17.2-25.8-17.4-25.8-0.2-1.2 163-109.8 251.8-241.6 252.8-17 0.2-17 25.8 0 25.8 147.4-1 266-102.8 267.4-278.4zM749.8 302v-0.4c-21.6-38-62-80-103.6-66.6l-0.4 0.6c-42.2 11.8-141.6 63-204.4 113-32.4 25.6-62 55.8-84.8 84.8-20.6 25.8-41.4 56.4-61.6 93.2-42.6 77-52 111.4-52 111.4-13.4 41.6 28.4 82 66.6 103.6h0.4c18.4 9.6 36 6.4 47.8-7.8 0 0 24.8-29.6 35.4-44.2 10-13.6 23.4-35.4 30.4-47.6 12.2-21.8 4.6-44-7.4-53.2l-24-19.2c-12.2-9.8-10.6-28-10.6-28s35.6-134.6 168.6-168.6c0 0 18.2-1.6 28 10.6l19.2 24c9.2 12 31.4 19.6 53.2 7.4 29.4-16.6 66.8-42.4 91.6-65.8 14-11.4 17.2-28.8 7.6-47.2z" />
<glyph unicode="&#xe915;" glyph-name="whatsapp" horiz-adv-x="896" d="M761.8 765.8c-83.8 84-195.4 130.2-314 130.2-244.8 0-444-199.2-444-444 0-78.2 20.4-154.6 59.2-222l-63-230 235.4 61.8c64.8-35.4 137.8-54 212.2-54h0.2c244.6 0 448.2 199.2 448.2 444 0 118.6-50.4 230-134.2 314zM447.8 82.6c-66.4 0-131.4 17.8-188 51.4l-13.4 8-139.6-36.6 37.2 136.2-8.8 14c-37 58.8-56.4 126.6-56.4 196.4 0 203.4 165.6 369 369.2 369 98.6 0 191.2-38.4 260.8-108.2s112.4-162.4 112.2-261c0-203.6-169.8-369.2-373.2-369.2zM650.2 359c-11 5.6-65.6 32.4-75.8 36-10.2 3.8-17.6 5.6-25-5.6s-28.6-36-35.2-43.6c-6.4-7.4-13-8.4-24-2.8-65.2 32.6-108 58.2-151 132-11.4 19.6 11.4 18.2 32.6 60.6 3.6 7.4 1.8 13.8-1 19.4s-25 60.2-34.2 82.4c-9 21.6-18.2 18.6-25 19-6.4 0.4-13.8 0.4-21.2 0.4s-19.4-2.8-29.6-13.8c-10.2-11.2-38.8-38-38.8-92.6s39.8-107.4 45.2-114.8c5.6-7.4 78.2-119.4 189.6-167.6 70.4-30.4 98-33 133.2-27.8 21.4 3.2 65.6 26.8 74.8 52.8s9.2 48.2 6.4 52.8c-2.6 5-10 7.8-21 13.2z" />
<glyph unicode="&#xe916;" glyph-name="ok" horiz-adv-x="640" d="M550.2 292c-54.8-34.8-130.2-48.6-180-53.8l41.8-41.2 152.6-152.6c55.8-57.2-35-146.6-91.4-91.4-38.2 38.8-94.2 94.8-152.6 153.2l-152.6-153c-56.4-55-147.2 35.2-90.8 91.4 38.8 38.8 94.2 94.8 152.6 152.6l41.2 41.2c-49.2 5.2-125.8 18.2-181.2 53.8-65.2 42-93.8 66.6-68.6 118 14.8 29.2 55.4 53.8 109.2 11.4 0 0 72.6-57.8 189.8-57.8s189.8 57.8 189.8 57.8c53.8 42.2 94.2 17.8 109.2-11.4 24.8-51.4-3.8-76-69-118.2zM60.6 700.6c0 143.4 116.6 259.4 259.4 259.4s259.4-116 259.4-259.4c0-142.8-116.6-258.8-259.4-258.8s-259.4 116-259.4 258.8zM192.6 700.6c0-70.2 57.2-127.4 127.4-127.4s127.4 57.2 127.4 127.4c0 70.8-57.2 128-127.4 128s-127.4-57.2-127.4-128z" />
<glyph unicode="&#xe917;" glyph-name="dostavka" horiz-adv-x="1321" d="M174.226 871.108c-2.184-0.728-5.177-2.184-6.552-3.155-5.905-4.206-12.052-13.346-13.508-19.979-0.485-2.507-5.419-44.082-5.743-48.773-0.081-1.456-0.404-2.831-0.728-3.155-0.243-0.243-0.485-1.213-0.485-2.022 0-1.375 6.552-1.456 184.66-1.699 101.51-0.162 185.873-0.485 187.41-0.728 16.015-2.427 30.251-14.559 34.052-29.038 2.022-7.684 2.022-17.309 0-24.427-3.721-13.022-16.905-25.802-30.736-30.008-2.022-0.566-77.892-0.971-251.632-1.294-216.69-0.324-249.044-0.566-251.147-1.618-7.037-3.397-14.317-10.272-17.552-16.42-2.265-4.287-3.074-17.876-1.375-23.861 1.779-6.552 9.868-15.125 17.471-18.603 2.912-1.294 18.361-1.375 246.941-1.779 227.609-0.404 244.11-0.485 247.345-1.779 1.86-0.728 5.015-2.507 6.956-3.882 2.022-1.294 3.963-2.427 4.368-2.427 1.213 0 8.736-8.412 10.758-12.052 4.206-7.603 4.691-8.736 5.581-13.184 1.456-6.552 0.647-19.979-1.456-25.883-0.971-2.588-2.831-6.309-4.125-8.25-1.375-2.022-2.507-3.802-2.507-4.044 0-0.728-8.088-8.008-11.89-10.758-1.941-1.375-5.985-3.559-8.978-4.853l-5.419-2.265-172.689-0.404c-145.916-0.324-173.093-0.566-175.115-1.537-1.294-0.647-2.912-1.213-3.397-1.375-1.375-0.243-9.464-6.147-9.868-7.118-0.162-0.485-1.052-1.537-2.022-2.507-4.853-4.934-7.441-15.934-6.066-25.721 1.132-8.574 5.177-15.045 12.375-19.898 7.118-4.853-5.743-4.53 177.218-4.934l168.24-0.404 7.199-3.478c5.5-2.588 8.412-4.691 12.537-8.897 9.302-9.383 13.022-18.037 13.022-30.574 0-10.030-1.618-16.258-6.228-23.699-4.449-7.118-9.14-11.89-16.177-16.339-10.434-6.552 12.214-5.905-222.756-6.39-152.953-0.324-210.3-0.647-211.109-1.294-0.647-0.485-3.155-1.537-5.581-2.346-3.478-1.132-5.581-2.588-9.868-6.956-4.61-4.61-5.662-6.309-7.037-10.839-2.346-7.441-2.265-16.177 0.081-23.052 1.537-4.206 2.831-6.228 6.875-10.191 7.441-7.361 9.14-7.846 30.413-8.25l17.552-0.324v-3.559c0-1.941-0.324-4.206-0.728-5.015-0.485-0.728-1.941-15.206-3.316-32.111s-2.831-32.192-3.235-33.972c-1.699-7.603-3.478-36.155-2.993-48.288 0.404-11.971 1.213-16.986 3.397-22.082 0.566-1.294 1.456-3.882 2.022-5.662 0.971-3.074 5.581-12.537 6.552-13.346 0.243-0.243 0.647-0.971 0.89-1.699 0.89-2.427 10.272-13.346 14.883-17.39 7.522-6.471 12.214-9.383 22.162-13.831 13.022-5.824 22.162-7.441 45.295-8.25l14.155-0.485 0.243-2.022c1.618-12.294 9.464-32.435 17.228-43.839 1.779-2.588 3.155-5.015 3.155-5.5 0-0.404 0.404-0.809 0.809-0.809 0.485 0 0.809-0.404 0.809-0.89 0-1.618 7.765-10.677 15.934-18.603 7.28-7.037 17.148-15.287 18.442-15.287 0.243 0 2.588-1.456 5.177-3.155 5.662-3.882 15.934-8.736 24.751-11.728 3.559-1.213 7.603-2.588 8.897-3.074 11.809-4.125 38.42-5.824 56.781-3.559 5.905 0.728 12.294 1.779 14.155 2.427 1.941 0.566 7.28 2.265 11.971 3.721s9.059 3.155 9.787 3.721c0.647 0.647 1.699 1.132 2.265 1.132 0.89 0 11.567 5.338 15.045 7.522 2.993 1.86 12.133 8.169 14.236 9.787 1.213 0.971 3.559 2.75 5.258 4.125 1.779 1.294 6.066 5.338 9.544 8.897 8.331 8.412 9.383 9.625 9.383 10.434 0 0.404 0.89 1.537 2.022 2.588s2.022 2.103 2.022 2.346c0 0.243 2.022 3.478 4.53 7.118 2.588 3.64 6.228 10.111 8.25 14.317 1.941 4.206 4.044 8.574 4.61 9.706s2.022 5.338 3.155 9.302c2.588 8.655 3.721 11.728 4.449 11.728 0.243 0 66.406 0.162 146.887 0.324 96.657 0.162 148.423 0.485 152.468 1.052 18.361 2.588 33.729 8.655 46.832 18.523l5.015 3.721 3.802-3.155c7.118-5.905 12.133-8.816 24.427-14.236 5.581-2.427 18.199-4.853 31.302-5.905l5.015-0.485 0.566-2.912c1.618-9.383 6.633-24.751 10.677-32.516 9.544-18.28 25.64-37.692 38.986-46.994 1.537-1.052 2.993-2.103 3.235-2.346 0.809-0.971 5.419-3.963 9.706-6.39 13.346-7.603 27.177-13.103 40.038-15.934 18.684-4.125 50.957-3.316 66.73 1.699 2.022 0.647 5.662 1.779 8.088 2.507 11.162 3.316 28.229 12.214 37.854 19.655 3.316 2.507 6.633 4.934 7.361 5.338 0.728 0.485 2.993 2.507 5.015 4.53 1.941 2.022 4.206 3.882 5.015 4.206 0.728 0.243 1.375 0.89 1.375 1.456 0 0.485 2.427 3.478 5.338 6.633 5.662 6.147 14.883 18.442 14.883 19.898 0 0.485 0.243 0.89 0.647 0.89 0.324 0 2.507 4.125 4.934 9.14 2.427 4.934 4.853 9.949 5.338 11.081 0.971 1.941 4.61 13.508 5.581 17.956l0.485 2.184 11.971 0.324c17.795 0.566 31.949 2.75 39.472 6.309 1.779 0.809 3.64 1.537 4.125 1.537 1.294 0 8.736 3.802 13.75 7.037 2.346 1.456 4.449 2.669 4.691 2.669 1.132 0 12.456 9.787 17.471 15.125 7.603 8.008 12.052 14.721 17.228 25.317 5.985 12.537 9.383 26.854 9.383 39.795 0 2.184 0.324 3.882 0.647 3.882s1.456 11 2.507 24.508c0.971 13.427 2.022 24.993 2.265 25.64 0.162 0.647 0.485 3.235 0.647 5.662s1.132 14.478 2.265 26.692c1.052 12.214 2.588 30.413 3.397 40.442 0.728 10.030 1.618 18.927 2.022 19.817 1.052 2.588 4.125 44.972 4.044 56.619-0.081 12.375-0.809 14.559-7.199 21.596-5.905 6.471-11 8.736-20.949 9.302-6.471 0.404-7.927 0.728-9.14 2.184-0.809 0.971-4.368 7.361-7.846 14.236s-8.897 17.471-12.052 23.457c-3.155 5.985-8.655 16.743-12.375 23.861-3.64 7.118-8.169 15.853-10.111 19.412-1.86 3.559-8.25 15.934-14.155 27.501s-12.133 23.618-13.75 26.692c-1.699 3.155-6.794 12.942-11.324 21.839-8.816 17.067-13.589 26.368-23.861 46.104-3.478 6.713-8.574 16.5-11.243 21.839-4.449 8.816-7.199 12.78-11.162 16.5-2.427 2.346-3.478 2.993-7.684 4.772l-4.206 1.779h-104.503c-75.223 0-105.231 0.243-107.091 0.89l-2.507 0.89 2.75 22.405c1.456 12.294 2.669 23.537 2.588 25.074 0 1.456 0.404 3.155 0.809 3.802 1.375 1.537 2.022 25.721 0.89 31.060-0.566 2.427-1.132 5.177-1.294 6.066-2.022 10.272-7.522 22.89-13.508 30.898-1.699 2.346-3.074 4.449-3.074 4.61 0 0.243-2.103 2.588-4.61 5.177-12.942 12.942-27.501 21.192-43.516 24.508-7.037 1.456-18.118 1.537-338.907 1.456-311.972 0-331.87-0.081-335.752-1.456zM988.653 650.131c-1.699-17.148-5.905-69.156-5.824-72.877 0-2.507-0.324-5.258-0.809-6.066-0.404-0.809-1.941-16.743-3.316-35.427-1.456-18.684-2.912-34.7-3.316-35.67-1.132-2.184-0.243-23.699 1.052-27.015 0.243-0.647 0.89-3.397 1.456-6.066 1.456-7.28 5.905-17.552 10.434-24.346 2.265-3.316 4.125-6.309 4.125-6.633 0-0.89 13.993-14.397 15.611-14.964 0.728-0.243 1.375-0.89 1.375-1.375 0-0.404 0.404-0.809 0.971-0.809 0.485 0 2.103-0.971 3.64-2.103 1.456-1.132 4.772-2.912 7.361-4.044 2.507-1.132 5.985-2.75 7.684-3.64 1.699-0.809 6.39-2.346 10.515-3.316l7.441-1.86 93.26-0.243c72.392-0.162 93.341-0.404 93.584-1.213 0.324-0.809-0.566-11.971-2.427-29.685-0.162-2.022-1.294-14.155-2.346-27.096-1.132-12.861-2.427-27.258-2.912-31.949s-0.809-10.272-0.809-12.537c0-2.184-0.324-4.772-0.728-5.662s-1.375-9.787-2.103-19.817c-1.213-15.449-2.103-25.479-4.044-44.891-1.779-17.228-12.942-29.766-29.442-33.082-2.669-0.485-8.736-0.728-15.045-0.485l-10.515 0.404-1.456 4.853c-3.316 11.324-4.449 14.236-9.14 23.861-15.853 32.030-42.384 55.325-76.76 67.377-15.287 5.338-31.383 7.522-50.068 6.794-15.368-0.566-26.288-2.427-39.067-6.713-21.515-7.118-40.523-18.927-56.134-34.861-7.927-8.008-18.523-21.030-18.523-22.648 0-0.566-0.324-1.052-0.647-1.052-0.404 0-2.103-2.831-3.882-6.228-1.699-3.478-3.559-6.633-4.044-7.118-0.485-0.404-1.86-3.316-3.074-6.471-1.294-3.074-2.588-6.147-3.074-6.633-0.485-0.566-0.647-1.052-0.404-1.052 0.162 0-0.485-2.265-1.456-5.096l-1.86-5.015h-5.985c-8.25 0.081-12.537 1.86-17.956 7.522-3.64 3.802-4.691 5.581-5.824 9.706-1.375 4.934-1.294 6.066 0.809 33.972 1.213 15.853 2.507 29.604 2.912 30.494 0.566 1.375 3.963 41.898 5.419 64.546 0.243 4.287 0.809 7.846 1.213 7.846s0.728 1.941 0.647 4.287c0 5.177 5.177 65.193 5.824 66.892 0.324 0.647 1.294 11.567 2.265 24.265 1.779 23.861 3.882 48.773 4.449 52.979 0.162 1.375 1.618 16.662 3.074 33.972 1.537 17.39 2.912 31.707 2.993 31.949 0.162 0.243 0.324 2.022 0.485 4.044 0.485 7.199 4.368 52.413 5.581 64.303 1.456 15.206 2.022 18.442 3.155 19.17 0.485 0.324 20.059 0.647 43.516 0.647h42.545l-0.404-4.125zM361.069 235.354c5.662-1.456 15.125-5.581 19.412-8.412 7.037-4.53 20.706-17.471 20.706-19.493 0-0.324 1.213-2.265 2.669-4.449 3.882-5.581 8.574-16.986 9.949-24.104 1.537-8.008 1.456-21.515-0.162-30.008-2.022-10.919-8.655-24.346-16.986-34.7-9.059-11.243-24.67-21.273-39.553-25.479-7.118-2.022-24.265-2.831-32.677-1.537-15.125 2.346-27.986 9.221-40.119 21.434-8.897 8.978-14.883 18.846-17.795 29.199-0.728 2.669-1.779 5.743-2.265 6.794-1.375 2.75-1.375 28.714 0.081 30.089 0.485 0.566 0.971 1.779 0.971 2.669 0 3.155 3.074 11.486 6.794 18.523 10.515 20.221 30.413 35.508 52.252 40.281 9.383 2.103 27.501 1.699 36.722-0.809zM1046.243 236.163c6.147-1.294 20.14-6.633 21.434-8.169 0.243-0.324 2.507-1.86 5.096-3.559 4.853-3.235 18.361-17.067 18.361-18.846 0-0.566 0.324-1.052 0.647-1.052 1.294 0 8.169-15.045 9.949-21.839 2.427-8.816 2.669-27.015 0.485-35.832-1.699-6.713-6.552-18.361-9.625-22.89-1.213-1.86-2.265-3.559-2.265-3.802 0-0.728-7.28-8.574-12.214-13.346-6.875-6.471-13.184-10.515-22.162-14.397-10.596-4.449-18.199-5.985-30.089-5.985-20.221 0.081-34.457 5.5-49.259 18.765-13.993 12.537-21.354 26.854-24.589 47.56-0.809 5.419-0.324 18.361 0.809 19.817 0.324 0.485 0.89 2.427 1.213 4.449s1.699 6.552 2.993 10.111c1.294 3.559 2.588 7.118 2.831 7.927 0.243 0.728 0.728 1.375 1.132 1.375s0.728 0.566 0.728 1.213c0 0.647 0.404 1.213 0.809 1.213 0.485 0 0.809 0.485 0.809 1.132 0 1.699 8.978 12.618 14.64 17.714 7.28 6.633 17.228 12.537 27.824 16.5 9.464 3.559 28.391 4.449 40.442 1.941z" />
<glyph unicode="&#xe918;" glyph-name="star-shooting" d="M728.588 425.426l-209.598 30.593-93.814 190.399c-7.651 15.317-23.213 25.651-41.188 25.651s-33.537-10.335-41.068-25.386l-0.12-0.265-93.814-190.399-209.598-30.593c-37.594-5.406-52.814-51.81-25.407-78.403l151.815-147.994-36.001-209.179c-0.417-2.329-0.655-5.009-0.655-7.745 0-25.394 20.531-45.994 45.9-46.104h0.011c7.825 0.018 15.174 2.033 21.572 5.562l-0.232-0.117 187.597 98.777 187.597-98.777c6.225-3.375 13.63-5.359 21.498-5.359 25.292 0 45.796 20.503 45.796 45.796 0 2.816-0.254 5.572-0.741 8.248l0.042-0.28-35.782 209.179 151.784 147.994c27.219 26.593 12 72.997-25.594 78.403zM557.718 244.851l-24.075-23.472 5.672-33.139 29.602-173.064-184.929 97.375-184.886-97.352 35.477 206.152-149.792 146.026 206.738 30.175 92.463 187.657 92.463-187.657 206.906-30.198zM996.691 571.331c-2.896 2.894-6.896 4.684-11.315 4.684s-8.418-1.79-11.315-4.684l-137.378-137.373c-2.896-2.894-4.688-6.894-4.688-11.312s1.791-8.418 4.688-11.312l22.622-22.624c2.896-2.894 6.896-4.684 11.315-4.684s8.418 1.79 11.315 4.684l137.378 137.373c2.896 2.894 4.688 6.894 4.688 11.312s-1.791 8.418-4.688 11.312v0zM628.684 587.326l22.622-22.62c2.896-2.896 6.896-4.687 11.315-4.687s8.419 1.791 11.315 4.687l345.378 345.362c2.896 2.894 4.688 6.894 4.688 11.312s-1.791 8.418-4.688 11.312l-22.622 22.624c-2.896 2.894-6.896 4.684-11.315 4.684s-8.418-1.79-11.315-4.684l-345.378-345.361c-2.896-2.895-4.688-6.895-4.688-11.314s1.791-8.419 4.688-11.314v0zM475.298 772.694c2.896-2.894 6.896-4.684 11.315-4.684s8.418 1.79 11.315 4.684l137.378 137.373c2.896 2.894 4.688 6.894 4.688 11.312s-1.791 8.418-4.688 11.312l-22.622 22.624c-2.896 2.894-6.896 4.684-11.315 4.684s-8.418-1.79-11.315-4.684l-137.378-137.374c-2.896-2.894-4.688-6.894-4.688-11.312s1.791-8.418 4.688-11.312v0z" />
<glyph unicode="&#xe919;" glyph-name="temperature-hot" horiz-adv-x="1152" d="M256 480c0-105.8 86.2-192 192-192s192 86.2 192 192-86.2 192-192 192-192-86.2-192-192zM576 480c0-70.6-57.4-128-128-128s-128 57.4-128 128 57.4 128 128 128 128-57.4 128-128zM960 250.2v549.8c0 17.6-14.4 32-32 32s-32-14.4-32-32v-549.8c-37.2-13.2-64-48.4-64-90.2 0-53 43-96 96-96s96 43 96 96c0 41.8-26.8 77-64 90.2zM1088 316.2v483.8c0 88.2-71.8 160-160 160s-160-71.8-160-160v-483.8c-40.6-41.6-64-97.8-64-156.2 0-123.6 100.4-224 224-224s224 100.4 224 224c0 58.4-23.4 114.8-64 156.2zM928 0c-88.2 0-160 71.8-160 160 0 51 24.6 97.8 64 127.6v512.4c0 53 43 96 96 96s96-43 96-96v-512.4c39.6-29.6 64-76.6 64-127.6 0-88.2-71.8-160-160-160zM527.8 240.8l-79.8-119.2-79.8 119.4c-7.2 10.8-20 16.4-32.8 13.6l-140.8-28 27.8 140.8c2.6 12.6-2.8 25.6-13.6 32.8l-119.2 79.8 119.4 79.8c10.8 7.2 16 20.2 13.6 32.8l-27.8 140.8 140.8-28c12.8-2.6 25.6 2.8 32.8 13.6l79.6 119.4 79.8-119.4c7.2-10.8 19.8-16.2 32.8-13.6l143.4 28.6v65.2l-134.8-26.8-94.6 141.4c-12 17.8-41.2 17.8-53.2 0l-94.6-141.4-166.6 33.2c-10.6 2.2-21.4-1.2-28.8-8.8-7.6-7.6-10.8-18.4-8.8-28.8l33-166.8-141.4-94.6c-8.8-6-14.2-16-14.2-26.6s5.4-20.6 14.2-26.6l141.4-94.6-33-166.8c-2-10.4 1.2-21.4 8.8-28.8 7.6-7.6 18.2-11 28.8-8.8l166.6 33 94.6-141.4c6-9 16-14.2 26.6-14.2s20.6 5.4 26.6 14.2l94.6 141.4 72-14.2c1 21.4 4.6 42.6 10.4 63.2l-91 18c-13 2.8-25.6-2.8-32.8-13.6z" />
<glyph unicode="&#xe91a;" glyph-name="temperature-frigid" d="M832 250.2v37.8c0 17.6-14.4 32-32 32s-32-14.4-32-32v-37.8c-37.2-13.2-64-48.4-64-90.2 0-53 43-96 96-96s96 43 96 96c0 41.8-26.8 77-64 90.2zM960 316.2v483.8c0 88.2-71.8 160-160 160s-160-71.8-160-160v-483.8c-40.6-41.6-64-97.8-64-156.2 0-123.6 100.4-224 224-224s224 100.4 224 224c0 58.4-23.4 114.8-64 156.2zM800 0c-88.2 0-160 71.8-160 160 0 51 24.4 97.8 64 127.6v512.4c0 53 43 96 96 96s96-43 96-96v-512.4c39.6-29.6 64-76.6 64-127.6 0-88.2-71.8-160-160-160zM554.2 308c6.8 11.2 13.6 22.2 21.8 32.4v28.4l-130.2 79.2 130.2 79v74.2l-160-97.2v186.6l91.4 91.4c6.2 6.2 6.2 16.4 0 22.6l-22.6 22.6c-6.2 6.2-16.4 6.2-22.6 0l-46-46v98.8c0 8.8-7.2 16-16 16h-32c-8.8 0-16-7.2-16-16v-98.8l-46 46c-6.2 6.2-16.4 6.2-22.6 0l-22.6-22.6c-6.2-6.2-6.2-16.4 0-22.6l91.4-91.4v-186.6l-155.4 93-32.2 124.8c-2.2 8.6-10.6 13.6-18.8 11.4l-29.8-8.2c-8.2-2.2-13.2-11-11-19.6l16.2-63-82.4 49.4c-7.4 4.4-16.8 1.8-21-5.8l-16-27.8c-4.2-7.6-1.8-17.4 5.6-21.8l82.4-49.4-60.4-17c-8.2-2.2-13.2-11-11-19.6l8-31c2.2-8.6 10.6-13.6 18.8-11.4l120.4 33.4 156.4-93.6-156.4-93.6-120.4 33.4c-8.2 2.2-16.6-2.8-18.8-11.4l-8-31c-2.2-8.6 2.6-17.4 11-19.6l60.6-16.8-82.4-49c-7.4-4.4-10-14.2-5.6-21.8l15.4-27.8c4.2-7.6 13.8-10.2 21-5.8l82.4 49.4-16.2-63c-2.2-8.6 2.6-17.4 11-19.6l29.8-8.2c8.2-2.2 16.6 2.8 18.8 11.4l32.2 124.8 155.4 93v-186.6l-91.4-91.6c-6.2-6.2-6.2-16.4 0-22.6l22.6-22.6c6.2-6.2 16.4-6.2 22.6 0l46 46v-98.8c0-8.8 7.2-16 16-16h32c8.8 0 16 7.2 16 16v98.8l46-46c6.2-6.2 16.4-6.2 22.6 0l22.6 22.6c6.2 6.2 6.2 16.4 0 22.6l-91 91.2v186.6l138.2-83.8z" />
<glyph unicode="&#xe91b;" glyph-name="theater-masks" horiz-adv-x="1280" d="M302.12 547.96c38.68 6.82 71.56 35.72 90.32 79.34 6.94 16.24-0.56 35.060-16.82 42.040-16.24 7-35.060-0.5-42.060-16.78-5.88-13.78-19.24-37.46-42.56-41.56-23.38-4.32-44.060 13.62-54.32 24.5-12.18 12.88-32.44 13.44-45.24 1.38-12.88-12.12-13.5-32.38-1.38-45.24 10.34-11 52.62-54.28 112.060-43.68zM1027.68 543.72c-38.82 6.96-78.94-8.5-112.060-43.62-12.12-12.88-11.5-33.12 1.38-45.24 12.82-12.060 33.060-11.5 45.24 1.38 10.24 10.94 30.76 28.68 54.32 24.5 23.32-4.12 36.68-27.82 42.56-41.56 7.080-16.38 26.040-23.7 42.060-16.78 16.24 6.96 23.76 25.78 16.82 42.040-18.74 43.56-51.62 72.46-90.32 79.28zM1039.060 322.5c-52.62-31.88-126.12-42.46-201.76-29.16-75.62 13.34-141.060 48.46-179.62 96.4-18.3 22.68-54.5 11.040-56.82-17.4-10.5-126.16 77.38-238.16 204.38-260.54 42.2-7.44 230.080-13 281.24 174.9 7.54 27.66-22.48 50.7-47.42 35.8zM816.38 174.82c-66.38 11.72-118.38 56.16-140.56 113.9 42.68-28.18 94.44-48.54 150.38-58.38 56.060-9.96 111.5-8.5 161.32 3.44-40.7-46.66-104.76-70.6-171.14-58.96zM678.62 506.22c10.24 10.88 31 29.1 54.32 24.5 23.32-4.1 36.68-27.78 42.56-41.56 7.080-16.38 26.040-23.7 42.060-16.78 16.24 6.96 23.76 25.78 16.82 42.040-19 44.28-51.060 72.46-90.32 79.38-39.18 6.72-79-8.62-112.060-43.68-12.12-12.88-11.5-33.12 1.38-45.24 12.88-12.1 33.060-11.54 45.24 1.34zM1213.6 720.18c-83.46 46.44-240 117.1-454.2 113.86-11.74 66.5-57.18 106.22-109.060 114.52-47.8 7.66-95.86 11.44-143.7 11.44-153.32 0-304.6-38.94-440.24-114.42-48.34-26.88-74.24-83.020-64.3-139.38l63.46-359.92c28.46-161.44 272.66-284.88 408.9-284.88 27.7 0 47.72 3.76 87.22 23.32 5.16-5.96 125.58-148.72 243.86-148.72 136.24 0 380.44 123.42 408.9 284.88l63.46 359.92c9.94 56.34-15.96 112.48-64.3 139.38zM474.46 125.42c-114.9 0-324.080 108.42-345.88 231.98l-63.44 359.92c-5.22 29.58 7.8 58.66 32.38 72.34 50.88 28.3 258.98 141.12 542.72 95.7 26.96-4.32 48.34-26.12 54.36-54.44-21.66-1.88-43.32-4.3-64.94-7.76-54.62-8.74-98.16-52.64-108.080-108.98l-47.34-268.38c-134.48-6.12-200.5-92.060-203.3-95.56-11.060-13.78-8.88-33.94 4.88-45 15.8-12.64 35.58-6.82 45 4.88 2.040 2.54 44.68 59.1 141.9 70.24l-4.6-26.14c-12.5-70.84 16.86-148.84 64.2-218.2-21.040-8.96-32.26-10.6-47.86-10.6zM1214.88 591.92l-63.48-359.94c-21.78-123.56-230.98-231.98-345.86-231.98-78.1 0-173.72 100.66-199.12 130.62-63.62 75.080-95.52 154.52-85.28 212.5l63.46 359.92c5.22 29.58 27.4 52.46 55.18 56.9 284.28 45.48 492.54-67.78 542.72-95.7 24.58-13.66 37.58-42.74 32.38-72.32z" />
<glyph unicode="&#xe91c;" glyph-name="waveform-path" horiz-adv-x="1280" d="M1264 408h-123.44l-28.88 187.66c-1.806 11.408-11.442 20.067-23.152 20.339l-0.028 0.001c-9.38-0.22-21.82-8.22-24-19.32l-68.5-342.68-76.24 533.4c-1.643 11.796-11.664 20.778-23.783 20.778-12.005 0-21.951-8.814-23.72-20.324l-0.017-0.134-102.24-652.56-106.12 804c-1.512 11.932-11.599 21.066-23.82 21.066s-22.308-9.134-23.808-20.947l-0.012-0.119-106.24-804-102.24 652.56c-1.786 11.644-11.732 20.458-23.737 20.458-12.119 0-22.139-8.982-23.768-20.652l-0.014-0.126-76.24-533.4-68.5 342.72c-2.32 11.62-15.74 19.060-24.38 19.28-11.612-0.42-21.094-9.029-22.862-20.204l-0.018-0.136-28.8-187.66h-123.44c-8.837 0-16-7.163-16-16v0-16c0-8.837 7.163-16 16-16v0h144c11.947 0.020 21.844 8.766 23.662 20.204l0.018 0.136 11.44 73.82 69.38-346.88c2.32-11.84 11.12-18.68 24.74-19.28 11.563 0.552 20.934 9.262 22.506 20.474l0.014 0.126 73.36 513.4 103.12-665.82c1-6.16 5.26-20.28 23.2-20.28h0.74c12.047 0.159 21.958 9.103 23.625 20.71l0.015 0.13 104.18 789.7 104.18-789.6c1.485-11.96 11.586-21.125 23.827-21.125 12.043 0 22.014 8.87 23.737 20.433l0.016 0.131 103.12 665.72 73.36-513.4c1.689-11.506 11.343-20.286 23.108-20.599l0.032-0.001c9.5 0.5 21.62 6.78 24.18 19.32l69.32 346.84 11.44-73.82c1.73-11.569 11.597-20.341 23.513-20.341 0.059 0 0.118 0 0.176 0.001h143.991c8.837 0 16 7.163 16 16v0 16c0 8.837-7.163 16-16 16v0z" />
<glyph unicode="&#xe91d;" glyph-name="waveform" horiz-adv-x="1280" d="M464 768h-32c-8.837 0-16-7.163-16-16v0-608c0-8.837 7.163-16 16-16v0h32c8.837 0 16 7.163 16 16v0 608c0 8.837-7.163 16-16 16v0zM272 576h-32c-8.837 0-16-7.163-16-16v0-224c0-8.837 7.163-16 16-16v0h32c8.837 0 16 7.163 16 16v0 224c0 8.837-7.163 16-16 16v0zM80 512h-32c-8.837 0-16-7.163-16-16v0-96c0-8.837 7.163-16 16-16v0h32c8.837 0 16 7.163 16 16v0 96c0 8.837-7.163 16-16 16v0zM848 704h-32c-8.837 0-16-7.163-16-16v0-480c0-8.837 7.163-16 16-16v0h32c8.837 0 16 7.163 16 16v0 480c0 8.837-7.163 16-16 16v0zM1232 512h-32c-8.837 0-16-7.163-16-16v0-96c0-8.837 7.163-16 16-16v0h32c8.837 0 16 7.163 16 16v0 96c0 8.837-7.163 16-16 16v0zM1040 832h-32c-8.837 0-16-7.163-16-16v0-736c0-8.837 7.163-16 16-16v0h32c8.837 0 16 7.163 16 16v0 736c0 8.837-7.163 16-16 16v0zM656 960h-32c-8.837 0-16-7.163-16-16v0-992c0-8.837 7.163-16 16-16v0h32c8.837 0 16 7.163 16 16v0 992c0 8.837-7.163 16-16 16v0z" />
<glyph unicode="&#xe91e;" glyph-name="checks" horiz-adv-x="983" d="M983.040 720v-192.001c-2.028-53.072-74.789-53.031-76.8 0v192.001c0 88.224-68.907 160-153.6 160h-522.24c-84.695 0-153.6-71.776-153.6-160v-543.999c0-88.224 68.905-160.002 153.6-160.002h192c50.95-2.109 50.909-77.906 0-79.999h-192c-127.043 0-230.4 107.663-230.4 240.001v543.999c0 132.336 103.357 240 230.4 240h522.24c127.042 0 230.4-107.664 230.4-240zM627.839 740c0 22.092-17.191 40-38.4 40h-195.839c-50.949-2.112-50.911-77.906 0-80h195.839c21.209 0 38.4 17.908 38.4 40zM944.64 165.63c-19.952 7.492-41.955-3.289-49.148-24.068-72.294-198.222-350.581-147.956-354.054 64.438-1.745 135.692 140.235 232.288 258.515 171.659 19.268-9.228 42.070-0.442 50.934 19.628 8.86 20.070 0.426 43.823-18.842 53.051-167.834 85.385-370.024-51.347-367.403-244.343 4.944-301.814 400.396-373.252 503.099-91.558 7.193 20.779-3.15 43.7-23.101 51.192zM822.063 154.28l149.856 157.569c14.926 15.696 14.811 41.021-0.254 56.566-15.065 15.548-39.383 15.43-54.305-0.262l-149.93-157.651c-7.733-8.573-21.627-8.593-29.336-0.123l-53.981 57.569c-14.819 15.802-39.129 16.101-54.305 0.668-15.167-15.438-15.454-40.763-0.639-56.566l54.1-57.692c18.514-19.579 43.176-30.36 69.435-30.36 26.264 0 50.917 10.785 69.358 30.282z" />
<glyph unicode="&#xe91f;" glyph-name="wrench" d="M1014.84 731.020c-4.68 18.94-19.32 33.96-38.12 39.22-18.94 5.22-39.3 0-53.3-13.96l-127.74-127.74-88.5 14.72-14.76 88.48 127.74 127.74c13.88 13.84 19.24 34.18 14 53.080-5.24 18.94-20.38 33.66-39.5 38.4-103.46 25.66-210.76-4.040-286.38-79.56-75.68-75.74-104.42-185.040-77.24-289.4l-386.66-386.58c-59.18-59.26-59.18-155.66 0-214.9 28.7-28.7 66.88-44.52 107.5-44.52s78.74 15.82 107.42 44.52l386.28 386.22c104.060-27.46 213.6 1.44 289.78 77.64 75.62 75.62 105.36 182.78 79.48 286.64zM890.12 489.62c-63.74-63.62-156.86-85.26-243.54-56.46l-18.76 6.28-413.76-413.68c-33.24-33.24-91.18-33.24-124.42 0-34.24 34.28-34.24 90.12 0 124.42l414.020 413.96-6.18 18.68c-28.62 86.9-7.12 180.12 56.060 243.34 45.42 45.44 105.34 69.84 167.58 69.84 13.74 0 27.62-1.18 41.44-3.62l-138.62-138.7 27.62-166.040 166.12-27.64 138.6 138.7c13.44-76.5-10.68-153.58-66.16-209.080zM160 128c-17.68 0-32-14.32-32-32s14.32-32 32-32 32 14.32 32 32-14.32 32-32 32z" />
<glyph unicode="&#xe920;" glyph-name="window-frame-open" d="M960 896c0 35.346-28.654 64-64 64v0h-768c-35.346 0-64-28.654-64-64v0-448h896zM480 512h-352v384h352zM896 512h-352v384h352zM992 128h-32v256h-64v-256h-768v256h-64v-256h-32c-17.673 0-32-14.327-32-32v0-128c0-17.673 14.327-32 32-32v0h960c17.673 0 32 14.327 32 32v0 128c0 17.673-14.327 32-32 32v0zM960 0h-896v64h896z" />
<glyph unicode="&#xe921;" glyph-name="window-frame" d="M992 128h-32v768c0 35.346-28.654 64-64 64v0h-768c-35.346 0-64-28.654-64-64v0-768h-32c-17.673 0-32-14.327-32-32v0-128c0-17.673 14.327-32 32-32v0h960c17.673 0 32 14.327 32 32v0 128c0 17.673-14.327 32-32 32v0zM544 896h352v-352h-352zM544 480h352v-352h-352zM128 896h352v-352h-352zM128 480h352v-352h-352zM960 0h-896v64h896z" />
<glyph unicode="&#xe922;" glyph-name="window-close" d="M928 896h-832c-53 0-96-43-96-96v-704c0-53 43-96 96-96h832c53 0 96 43 96 96v704c0 53-43 96-96 96zM960 96c0-17.6-14.4-32-32-32h-832c-17.6 0-32 14.4-32 32v704c0 17.6 14.4 32 32 32h832c17.6 0 32-14.4 32-32v-704zM697.2 583.4l-135.4-135.4 135.4-135.4c9.2-9.2 9.2-24 0-33.2l-16.6-16.6c-9.2-9.2-24-9.2-33.2 0l-135.4 135.4-135.4-135.4c-9.2-9.2-24-9.2-33.2 0l-16.6 16.6c-9.2 9.2-9.2 24 0 33.2l135.4 135.4-135.4 135.4c-9.2 9.2-9.2 24 0 33.2l16.6 16.6c9.2 9.2 24 9.2 33.2 0l135.4-135.4 135.4 135.4c9.2 9.2 24 9.2 33.2 0l16.6-16.6c9-9.2 9-24 0-33.2z" />
<glyph unicode="&#xe923;" glyph-name="webcam" horiz-adv-x="896" d="M802 82.8l-98.38 61.5c116.14 80.92 192.38 215.32 192.38 367.7 0 247.42-200.58 448-448 448s-448-200.58-448-448c0-152.38 76.24-286.78 192.46-367.7l-98.46-61.5c-18.137-11.506-30-31.478-30-54.222 0-0.020 0-0.041 0-0.061v0.003-28.52c0-35.346 28.654-64 64-64v0h640c35.346 0 64 28.654 64 64v0 28.52c0 0.017 0 0.038 0 0.058 0 22.743-11.863 42.716-29.739 54.067l-0.261 0.155zM64 512c0 212 172 384 384 384s384-172 384-384-172-384-384-384-384 172-384 384zM768 0h-640v28.52l127.24 79.48c56.338-27.799 122.65-44.061 192.76-44.061s136.422 16.262 195.369 45.219l-2.609-1.158 127.24-79.48zM768 512c0 176.731-143.269 320-320 320s-320-143.269-320-320c0-176.731 143.269-320 320-320v0c176.731 0 320 143.269 320 320v0zM192 512c0 141.385 114.615 256 256 256s256-114.615 256-256c0-141.385-114.615-256-256-256v0c-141.321 0.159-255.841 114.679-256 255.985v0.015zM480 672c0 17.673-14.327 32-32 32v0c-105.993-0.114-191.886-86.007-192-191.989v-0.011c0-17.673 14.327-32 32-32s32 14.327 32 32v0c0.080 70.66 57.34 127.92 127.993 128h0.007c17.673 0 32 14.327 32 32v0z" />
<glyph unicode="&#xe924;" glyph-name="water" horiz-adv-x="1152" d="M1136.6 128c-59 3-115.4 23.2-156.4 56.6-11.8 9.6-28.6 9.6-40.4-0.2-87.4-71.8-254-72.6-343.6 0.2-11.8 9.6-28.6 9.6-40.4-0.2-87.4-71.8-254-72.6-343.6 0.2-11.8 9.6-28.6 9.4-40.4-0.2-40.4-33.2-96.8-53.4-156.4-56.4-8.6-0.4-15.4-7.2-15.4-15.8v-32c0-9 7.6-16.6 16.6-16.2 64.6 3 126.6 22.8 175.6 55.8 107.6-72.2 278.4-71.6 384 0 107.4-72.2 278.4-71.6 384 0 49.2-33 111.2-52.8 175.2-55.8 9-0.4 16.6 7.2 16.6 16.2v32c0 8.6-6.8 15.4-15.4 15.8zM1136.6 341.4c-59 3-115.4 23.2-156.4 56.6-11.8 9.6-28.6 9.6-40.4-0.2-87.4-71.8-254-72.6-343.6 0.2-11.8 9.6-28.6 9.6-40.4-0.2-87.4-71.8-254-72.6-343.6 0.2-11.8 9.6-28.6 9.4-40.4-0.2-40.4-33.2-96.6-53.4-156.2-56.4-8.6-0.4-15.4-7.2-15.4-15.8v-32c0-9 7.6-16.6 16.6-16.2 64.6 3 126.6 22.8 175.6 55.8 107.6-72.2 278.4-71.6 384 0 107.4-72.2 278.4-71.6 384 0 49.2-33 111.2-52.8 175.2-55.8 9-0.4 16.6 7.2 16.6 16.2v32c-0.2 8.6-7 15.4-15.6 15.8zM1136.6 554.8c-59 3-115.4 23.2-156.4 56.6-11.8 9.6-28.6 9.6-40.4-0.2-87.4-71.8-254-72.6-343.6 0.2-11.8 9.6-28.6 9.6-40.4-0.2-87.4-71.8-254-72.6-343.6 0.2-11.8 9.6-28.6 9.4-40.4-0.2-40.4-33.2-96.8-53.4-156.4-56.4-8.6-0.4-15.4-7.2-15.4-15.8v-32c0-9 7.6-16.6 16.6-16.2 64.6 3 126.6 22.8 175.6 55.8 107.6-72.2 278.4-71.6 384 0 107.4-72.2 278.4-71.6 384 0 49.2-33 111.2-52.8 175.2-55.8 9-0.4 16.6 7.2 16.6 16.2v32c0 8.6-6.8 15.4-15.4 15.8zM1136.6 768.2c-59 3-115.4 23.2-156.4 56.6-11.8 9.6-28.6 9.6-40.4-0.2-87.4-71.8-254-72.6-343.6 0.2-11.8 9.6-28.6 9.6-40.4-0.2-87.4-71.8-254-72.6-343.6 0.2-11.8 9.6-28.6 9.4-40.4-0.2-40.4-33.2-96.8-53.4-156.4-56.4-8.6-0.4-15.4-7.2-15.4-15.8v-32c0-9 7.6-16.6 16.6-16.2 64.6 3 126.6 22.8 175.6 55.8 107.6-72.2 278.4-71.6 384 0 107.4-72.2 278.4-71.6 384 0 49.2-33 111.2-52.8 175.2-55.8 9-0.4 16.6 7.2 16.6 16.2v32c0 8.6-6.8 15.4-15.4 15.8z" />
<glyph unicode="&#xe925;" glyph-name="watch" horiz-adv-x="768" d="M640 734.2v177.8c0 26.4-21.6 48-48 48h-416c-26.4 0-48-21.6-48-48v-177.8c-78.6-70.4-128-172.4-128-286.2s49.4-215.8 128-286.2v-177.8c0-26.4 21.6-48 48-48h416c26.4 0 48 21.6 48 48v177.8c78.6 70.4 128 172.4 128 286.2s-49.4 215.8-128 286.2zM192 896h384v-115.4c-56.4 32.8-122 51.4-192 51.4s-135.6-18.6-192-51.4v115.4zM576 0h-384v115.4c56.4-32.6 122-51.4 192-51.4s135.6 18.8 192 51.4v-115.4zM384 128c-177.2 0-320 143.6-320 320s143 320 320 320c176.8 0 320-143.2 320-320s-143.2-320-320-320zM482 312.4l-120.2 87.4c-6.2 4.6-9.8 11.8-9.8 19.4v240.2c0 13.2 10.8 24 24 24h16c13.2 0 24-10.8 24-24v-219.8l103.6-75.4c10.8-7.8 13-22.8 5.2-33.6l-9.4-13c-7.6-10.6-22.6-13-33.4-5.2z" />
<glyph unicode="&#xe926;" glyph-name="wand-magic" d="M917.32 277.34l-53.32 106.66-53.32-106.66-106.68-53.34 106.68-53.34 53.32-106.66 53.32 106.66 106.68 53.34-106.68 53.34zM864 192c-17.68 0-32 14.32-32 32s14.32 32 32 32 32-14.32 32-32-14.32-32-32-32zM448 768l32 64 64 32-64 32-32 64-32-64-64-32 64-32 32-64zM800 576c17.68 0 32 14.32 32 32v55.92l183.74 203.66c11.44 12.64 10.96 32.040-1.1 44.1l-38.96 38.94c-5.782 5.795-13.778 9.38-22.61 9.38-0.011 0-0.021 0-0.032 0h0.002c-7.68 0-15.36-2.74-21.46-8.26l-558.38-503.74h-85.2c-17.68 0-32-14.32-32-32v-73.74l-234.94-211.94c-27.14-24.56-28.2-66.84-2.32-92.72l82.86-82.86c12.52-12.54 28.9-18.74 45.24-18.74 17.42 0 34.8 7.060 47.46 21.060l558.38 618.94h47.32zM146.86 0l-82.92 82.8 846.76 763.9-763.84-846.7zM160 640l53.32 106.66 106.68 53.34-106.68 53.34-53.32 106.66-53.32-106.66-106.68-53.34 106.68-53.34 53.32-106.66zM160 832c17.68 0 32-14.32 32-32s-14.32-32-32-32-32 14.32-32 32 14.32 32 32 32z" />
<glyph unicode="&#xe927;" glyph-name="gem" horiz-adv-x="1152" d="M927.4 960h-702.8c-8.4 0-16.2-4.4-20.6-11.6l-200.6-325.6c-5.4-8.8-4.4-20.2 2.4-28l552-650.4c9.6-11.2 26.8-11.2 36.4 0l552 650.4c6.8 7.8 7.6 19.2 2.4 28l-200.6 325.6c-4.4 7.2-12.2 11.6-20.6 11.6zM900.2 888l148.6-248h-166l-113.6 248h131zM690 888l113.6-248h-455.4l113.8 248h228zM251.8 888h131l-113.6-248h-166l148.6 248zM122.4 576h146l163.6-384-309.6 384zM346.4 576h459l-229.4-527.6-229.6 527.6zM720 192l163.6 384h146l-309.6-384z" />
<glyph unicode="&#xe928;" glyph-name="sign-in" d="M368 793l329-328c9.4-9.4 9.4-24.6 0-34l-329-328c-9.4-9.4-24.6-9.4-34 0l-14.2 14.2c-9.4 9.4-9.4 24.6 0 34l264 262.8h-559.8c-13.2 0-24 10.8-24 24v20c0 13.2 10.8 24 24 24h559.8l-263.8 262.8c-9.4 9.4-9.4 24.6 0 34l14.2 14.2c9.2 9.4 24.4 9.4 33.8 0zM1024 160v576c0 53-43 96-96 96h-264c-13.2 0-24-10.8-24-24v-16c0-13.2 10.8-24 24-24h264c17.6 0 32-14.4 32-32v-576c0-17.6-14.4-32-32-32h-264c-13.2 0-24-10.8-24-24v-16c0-13.2 10.8-24 24-24h264c53 0 96 43 96 96z" />
<glyph unicode="&#xe929;" glyph-name="book-user" horiz-adv-x="896" d="M480 512c88.366 0 160 71.634 160 160s-71.634 160-160 160c-88.366 0-160-71.634-160-160v0c0.102-88.324 71.676-159.898 159.99-160h0.010zM480 768c53.019 0 96-42.981 96-96s-42.981-96-96-96c-53.019 0-96 42.981-96 96v0c0.057 52.996 43.004 95.943 95.995 96h0.005zM896 176v736c0 0.036 0 0.078 0 0.12 0 26.443-21.437 47.88-47.88 47.88-0.042 0-0.084 0-0.127 0h-687.993c-88.366 0-160-71.634-160-160v0-736c0-70.692 57.308-128 128-128v0h744c13.255 0 24 10.745 24 24v0 16c0 13.255-10.745 24-24 24v0h-6.6c-8 40.4-6.4 99.4 0.8 131.6 17.595 7.406 29.736 24.477 29.8 44.392v0.008zM808.6 0h-680.6c-35.346 0-64 28.654-64 64s28.654 64 64 64v0h680.6c-2.865-19.23-4.502-41.424-4.502-64s1.636-44.771 4.797-66.471l-0.295 2.471zM832 192h-704c-23.635-0.132-45.704-6.716-64.57-18.079l0.57 0.319v625.76c0 53.019 42.981 96 96 96v0h672zM300.82 256h358.36c38.82 0 76.82 26 76.82 76.82 0 81.18-74.62 147.18-166.38 147.18-43-4.76-45.2-16-89.62-16s-46.62 11.16-89.62 16c-91.76 0-166.38-66-166.38-147.18 0-50.82 38-76.82 76.82-76.82zM390.38 416c9.32 0 36.86-16 89.62-16s80.3 16 89.62 16c56.38 0 102.38-37.32 102.38-83.18 0-6.44 0.82-12.82-12.82-12.82h-358.36c-13.64 0-12.82 6.38-12.82 12.82 0 45.86 46 83.18 102.38 83.18z" />
<glyph unicode="&#xe92a;" glyph-name="chalkboard-teacher" horiz-adv-x="1280" d="M1216 960h-832c-35.34 0-64-28.66-64-64v-192c-106.040 0-192-85.96-192-192s85.96-192 192-192 192 85.96 192 192c0 83.48-53.6 153.8-128 180.24v203.76h832v-704h-128v128c0 35.34-28.66 64-64 64h-256c-35.34 0-64-28.66-64-64v-128h-93.32c-1.18 1.88-2.060 3.92-3.3 5.76-34.5 51.24-93.34 78.22-153.8 78.22-55.58-0.020-69.54-19.98-133.58-19.98-63.94 0-77.9 19.96-133.58 19.96-60.46 0-119.3-26.96-153.8-78.22-20.6-30.58-32.62-67.42-32.62-107.080v-74.66c0-44.18 35.82-80 80-80h480c44.18 0 80 35.82 80 80v74.66c0 12.82-1.68 25.2-4.080 37.34h580.080c35.34 0 64 28.66 64 64v704c0 35.34-28.66 64-64 64zM448 512c0-70.58-57.42-128-128-128s-128 57.42-128 128 57.42 128 128 128 128-57.42 128-128zM576 16c0-8.82-7.18-16-16-16h-480c-8.82 0-16 7.18-16 16v74.66c0 25.58 7.5 50.26 21.7 71.34 21.060 31.28 58.7 49.96 100.72 49.96 43.6 0 59.98-19.96 133.58-19.96 73.58 0 90.020 19.96 133.58 19.96 42 0 79.66-18.68 100.72-49.96 14.2-21.080 21.7-45.76 21.7-71.34v-74.66zM1024 192h-256v128h256v-128z" />
<glyph unicode="&#xe92b;" glyph-name="graduation-cap1" horiz-adv-x="1280" d="M1224.32 652.020l-530 171.36c-35.62 11.5-73 11.5-108.62 0l-530-171.36c-33.82-10.94-55.7-40.78-55.7-76.020s21.88-65.080 55.68-76.020l59.42-19.2c-6.6-12.36-11.48-25.66-14.66-39.6-21.38-10.36-36.44-31.82-36.44-57.18 0-25.46 15.14-47.040 36.66-57.34l-36.1-223.72c-3.22-19.98 7.82-38.94 22.68-38.94h81.5c14.86 0 25.92 18.96 22.68 38.94l-36.080 223.72c21.52 10.3 36.66 31.88 36.66 57.34 0 21.2-10.98 39.080-26.86 50.74 2.98 9.32 7.6 17.72 13.14 25.62l106.94-34.58-29.22-233.78c0-70.7 171.92-128 384-128s384 57.3 384 128l-29.22 233.78 229.54 74.22c33.8 10.92 55.68 40.76 55.68 76s-21.88 65.080-55.68 76.020zM958.96 196.28c-21.52-22.66-130.88-68.28-318.96-68.28s-297.44 45.62-318.96 68.28l26.18 209.46 238.48-77.1c5.2-1.68 51.44-18.46 108.62 0l238.48 77.1 26.16-209.46zM1204.56 560.84l-530-171.36c-22.62-7.32-46.5-7.32-69.12 0l-351.34 113.6 391.78 73.48c17.38 3.24 28.82 19.96 25.56 37.34-3.24 17.4-20.32 28.78-37.32 25.54l-407.56-76.4c-24.8-4.64-47.020-15.3-66.16-29.66l-84.98 27.48c-15.7 5.1-14.92 25.48 0 30.3l530 171.36c30.2 9.76 55.68 4.34 69.12 0l530-171.36c14.78-4.78 15.82-25.2 0.020-30.32z" />
<glyph unicode="&#xe92c;" glyph-name="backpack" horiz-adv-x="896" d="M640 832h-32v32c0 52.94-43.060 96-96 96h-128c-52.94 0-96-43.060-96-96v-32h-32c-141.38 0-256-114.62-256-256v-512c0-70.7 57.3-128 128-128h640c70.7 0 128 57.3 128 128v512c0 141.38-114.62 256-256 256zM352 864c0 17.66 14.38 32 32 32h128c17.62 0 32-14.34 32-32v-32h-192v32zM672 0h-448v192h448v-192zM672 256h-448v64c0 35.34 28.66 64 64 64h320c35.34 0 64-28.66 64-64v-64zM832 64c0-35.28-28.72-64-64-64h-32v320c0 70.58-57.42 128-128 128h-320c-70.58 0-128-57.42-128-128v-320h-32c-35.28 0-64 28.72-64 64v512c0 105.88 86.12 192 192 192h384c105.88 0 192-86.12 192-192v-512zM624 640h-352c-8.84 0-16-7.16-16-16v-32c0-8.84 7.16-16 16-16h352c8.84 0 16 7.16 16 16v32c0 8.84-7.16 16-16 16z" />
<glyph unicode="&#xe92d;" glyph-name="hand-pointer" horiz-adv-x="896" d="M721.086 583.688c-34.92 56.982-108.582 74.126-164.276 39.386-31.93 41.662-85.344 56.556-132.238 40.77v175.656c0 66.444-53.576 120.5-119.428 120.5s-119.43-54.056-119.43-120.5v-363.804c-40.676 27.346-95.156 27.78-136.778-2.944-53.112-39.21-64.736-114.16-26.264-167.852l228.542-319c22.392-31.246 58.572-49.9 96.786-49.9h371.428c55.428 0 103.664 38.588 116.29 93.056l57.142 246.5c1.995 8.245 3.14 17.712 3.14 27.446v0 174c0 90.73-96.022 148.624-174.914 106.686zM164.194 408.824l56.516-78.878c0.003-8.833 7.164-15.993 15.998-15.993 8.835 0 15.998 7.163 15.998 15.998 0 3.495-1.121 6.728-3.022 9.36l0.032-0.047v500.236c0 74.7 110.856 74.82 110.856 0v-362.5c0-8.837 7.163-16 16-16v0h14.288c8.837 0 16 7.163 16 16v0 72.5c0 74.7 110.858 74.82 110.858 0v-72.5c0-8.837 7.163-16 16-16v0h14.282c8.837 0 16 7.163 16 16v0 43.5c0 74.702 110.858 74.816 110.858 0v-43.5c0-8.837 7.163-16 16-16v0h14.286c8.837 0 16 7.163 16 16v0c0 74.7 110.858 74.82 110.858 0v-174c0-4.372-0.5-8.742-1.484-12.992l-57.146-246.502c-5.938-25.616-28.12-43.506-53.942-43.506h-371.43c-17.626 0-34.362 8.664-44.762 23.176l-228.566 319c-44.426 62.008 47.602 125.15 89.522 66.648zM360.57 158v174c0 8.837 7.163 16 16 16v0h14.288c8.837 0 16-7.163 16-16v0-174c0-8.837-7.163-16-16-16v0h-14.288c-8.837 0-16 7.163-16 16v0zM517.714 158v174c0 8.837 7.163 16 16 16v0h14.286c8.837 0 16-7.163 16-16v0-174c0-8.837-7.163-16-16-16v0h-14.286c-8.837 0-16 7.163-16 16v0zM674.858 158v174c0 8.837 7.163 16 16 16v0h14.286c8.837 0 16-7.163 16-16v0-174c0-8.837-7.163-16-16-16v0h-14.286c-8.837 0-16 7.163-16 16v0z" />
<glyph unicode="&#xe92e;" glyph-name="books2" horiz-adv-x="1152" d="M1150.66 47.14l-352.66 896.82c-3.44 9.84-12.78 16.040-22.7 16.040-6.020 0-9.94-2.060-22.98-6.62-12.92-4.52-19.64-16.48-12.54-36.76-32.92-19.38-118.3-48.18-151-52.84-2.66 7.56-3.94 13.24-12.8 18.46v13.76c0 35.34-28.66 64-64 64h-192c-11.92 0-22.44-4.14-32-9.8-9.54 5.66-20.060 9.8-31.98 9.8h-192c-35.34 0-64-28.66-64-64v-896c0-35.34 28.66-64 64-64h192c11.92 0 22.44 4.14 32 9.8 9.56-5.68 20.080-9.8 32-9.8h192c35.34 0 64 28.66 64 64v722.24l302.86-770.2c3.46-9.84 12.8-16.040 22.7-16.040 6 0 9.92 2.060 22.98 6.62 12.88 4.5 19.66 16.46 12.54 36.76 32.92 19.38 118.3 48.18 151 52.84 7.3-20.8 20.26-25.3 32.76-20.92l15.1 5.28c12.46 4.38 19.080 18.14 14.72 30.56zM256 0h-192v128h192v-128zM256 192h-192v512h192v-512zM256 768h-192v128h192v-128zM512 0h-192v128h192v-128zM512 192h-192v512h192v-512zM512 768h-192v128h192v-128zM918.3 32.92l-310.72 777.32c50.44 9.48 128.020 40.66 151 52.84l310.72-777.3c-50.46-9.5-128.020-40.66-151-52.86z" />
<glyph unicode="&#xe92f;" glyph-name="headphones1" d="M512 896c-282.966 0-512-228.994-512-512v-102.858c0.001-11.955 6.555-22.378 16.267-27.873l0.159-0.083 47.608-26.524c-0.010-0.886-0.034-1.772-0.034-2.662 0-123.712 100.288-224 224-224h48c26.51 0 48 21.49 48 48v352c0 26.51-21.49 48-48 48h-48c-99.35 0-183.58-64.686-212.906-154.236l-11.094 6.182v84.054c0 247.59 200.368 448 448 448 247.592 0 448-200.368 448-448v-84.054l-11.094-6.18c-29.326 89.548-113.554 154.234-212.906 154.234h-48c-26.51 0-48-21.49-48-48v-352c0-26.51 21.49-48 48-48h48c123.712 0 224 100.288 224 224 0 0.89-0.024 1.776-0.034 2.664l47.608 26.524c9.871 5.578 16.426 16.001 16.426 27.956v0 102.856c0 282.964-228.994 512-512 512zM288 384h32v-320h-32c-88.224 0-160 71.776-160 160s71.776 160 160 160zM736 64h-32v320h32c88.224 0 160-71.776 160-160s-71.776-160-160-160z" />
<glyph unicode="&#xe930;" glyph-name="percent" horiz-adv-x="768" d="M192 512c106 0 192 86 192 192s-86 192-192 192-192-86-192-192 86-192 192-192zM192 824c66.2 0 120-53.8 120-120s-53.8-120-120-120-120 53.8-120 120 53.8 120 120 120zM576 384c-106 0-192-86-192-192s86-192 192-192 192 86 192 192-86 192-192 192zM576 72c-66.2 0-120 53.8-120 120s53.8 120 120 120 120-53.8 120-120-53.8-120-120-120zM695.6 896h60.4c10 0 15.6-11.4 9.6-19.2l-683.6-872c-2.2-3-5.8-4.8-9.6-4.8h-60.4c-10 0-15.6 11.4-9.6 19.2l683.6 872c2.2 3 5.8 4.8 9.6 4.8z" />
<glyph unicode="&#xe931;" glyph-name="marker-map" d="M525.056 116.992l-98.56 245.461-245.504 98.603c-18.695 7.675-31.62 25.738-31.62 46.821 0 21.725 13.725 40.244 32.977 47.359l0.35 0.113 581.717 209.664c5.092 1.893 10.974 2.989 17.112 2.989 27.876 0 50.475-22.598 50.475-50.475 0-6.138-1.096-12.020-3.102-17.462l0.113 0.35-209.664-581.717c-7.229-19.602-25.748-33.327-47.472-33.327-21.082 0-39.146 12.925-46.698 31.284l-0.122 0.336z" />
<glyph unicode="&#xe932;" glyph-name="cocktail" horiz-adv-x="1152" d="M782.64 704h-733.28c-43.9 0-65.88-53.060-34.84-84.1l369.48-369.48v-250.42h-106.66c-29.46 0-53.34-23.88-53.34-53.34 0-5.9 4.78-10.66 10.66-10.66h362.66c5.9 0 10.66 4.78 10.66 10.66 0 29.46-23.88 53.34-53.34 53.34h-106.64v250.42l369.46 369.46c31.040 31.060 9.060 84.12-34.82 84.12zM416 308.94l-331.060 331.060h662.12l-331.060-331.060zM864 960c-125.1 0-229.78-80.46-269.22-192h68.62c35.9 75.36 111.66 128 200.6 128 123.52 0 224-100.48 224-224s-100.48-224-224-224c-36.98 0-71.36 9.86-102.12 25.8l-47.040-47.040c43.62-26.6 94.34-42.76 149.16-42.76 159.060 0 288 128.94 288 288s-128.94 288-288 288zM864 576c-0.080 0-0.16 0.020-0.26 0.020-0.4-0.42-0.6-0.96-1.020-1.38l-52.64-52.64c16.92-6.1 34.92-10 53.92-10 88.24 0 160 71.78 160 160s-71.76 160-160 160c-52.1 0-98.020-25.36-127.24-64h127.24c52.94 0 96-43.060 96-96s-43.060-96-96-96z" />
<glyph unicode="&#xe933;" glyph-name="ice-cream" horiz-adv-x="896" d="M761.82 701.4c-28.68 147.3-158.12 258.6-313.82 258.6s-285.14-111.3-313.82-258.6c-76.482-12.807-134.046-78.511-134.046-157.66 0-88.222 71.518-159.74 159.74-159.74 0.044 0 0.089 0 0.133 0h11.993l190-393.3c15.557-32.563 48.228-54.659 86.060-54.659s70.504 22.096 85.813 54.086l0.247 0.572 189.88 393.3h12c0.037 0 0.082 0 0.126 0 88.222 0 159.74 71.518 159.74 159.74 0 79.149-57.564 144.853-133.11 157.53l-0.936 0.13zM476.44 18.54c-8.12-16.76-22.56-18.54-28.44-18.54s-20.32 1.78-28.44 18.54l-176.56 365.46h410zM736 448h-576c-0.118-0.001-0.257-0.001-0.396-0.001-52.865 0-95.72 42.855-95.72 95.72 0 47.532 34.645 86.972 80.061 94.445l0.555 0.075 44 7.18 8.5 43.76c23.733 118.658 127.071 206.815 251 206.815s227.268-88.157 250.727-205.181l0.273-1.634 8.5-43.76 44-7.18c45.971-7.549 80.616-46.989 80.616-94.521 0-52.865-42.855-95.72-95.72-95.72-0.139 0-0.278 0-0.417 0.001h0.022z" />
<glyph unicode="&#xe934;" glyph-name="sushi" d="M486.446 384.594c-59.57 0-108.032-48.462-108.032-108.032v-30.736c0-16.12 13.114-29.232 29.232-29.232h157.6c16.12 0 29.232 13.114 29.232 29.232v30.736c0 59.57-48.462 108.032-108.032 108.032zM486.446 354.594c15.23 0 29.442-4.402 41.464-11.976l-46.11-30.74c-11.568 6.798-25.024 10.716-39.386 10.716h-18.924c14.212 19.384 37.134 32 62.956 32zM408.414 246.594v29.968c0 1.352 0.034 2.702 0.104 4.046 0.002 0.048 0.008 0.094 0.010 0.14 0.214 3.992 0.73 7.948 1.55 11.846h32.334c25.796 0 46.906-20.458 47.958-46zM564.478 246.594h-44.116c-0.424 16.698-6.096 32.116-15.46 44.632l45.32 30.214c8.966-12.704 14.256-28.18 14.256-44.878zM999 182.564h-88.878c12.754 17.864 20.292 39.69 20.292 63.264v30.736c0 37.694-11.118 74.064-32.15 105.178-4.638 6.864-13.962 8.668-20.828 4.026-6.864-4.638-8.666-13.964-4.026-20.828 17.666-26.134 27.002-56.696 27.002-88.378v-30.736c0-25.822-12.42-48.792-31.598-63.264h-214.622c7.266 10.192 12.836 21.67 16.278 34.032h150.71c16.12 0 29.232 13.114 29.232 29.232v30.736c0 59.57-48.462 108.032-108.032 108.032-32.594 0-61.854-14.518-81.678-37.418-6.592 16.208-15.406 31.278-26.022 44.876 28.242 26.364 66.106 42.542 107.698 42.542 30.3 0 59.776-8.642 85.24-24.994 6.97-4.474 16.25-2.456 20.726 4.518 4.476 6.97 2.454 16.25-4.518 20.726-30.308 19.462-65.388 29.75-101.45 29.75-49.388 0-94.382-19.15-127.968-50.404-33.584 31.254-78.576 50.404-127.966 50.404-16.956 0-33.394-2.258-49.030-6.486 0.042 1.238 0.094 2.472 0.094 3.718v15.7l514.98 297.324c11.58 6.684 15.562 21.544 8.876 33.126l-40.742 70.58c-3.238 5.612-8.468 9.626-14.726 11.3-6.256 1.68-12.792 0.816-18.402-2.422l-487.96-281.722c-34.352 45.448-88.822 74.884-150.052 74.884-103.682 0-188.032-84.35-188.032-188.032v-30.736c0-60.23 49.002-109.232 109.232-109.232h143.82c-10.33-23.26-16.086-48.984-16.086-76.032v-30.736c0-23.574 7.538-45.4 20.292-63.264h-293.706c-13.786 0-25-11.214-25-25v-49.54c0-13.786 11.214-25 25-25h87.226v-52.72c0-13.786 11.214-25 25-25h178.774c8.284 0 15 6.716 15 15s-6.716 15-15 15h-173.774v47.72h551.774c8.284 0 15 6.716 15 15s-6.716 15-15 15h-664v39.54h964v-39.54h-230c-8.284 0-15-6.716-15-15s6.716-15 15-15h117.774v-47.72h-495.774c-8.284 0-15-6.716-15-15s6.716-15 15-15h500.774c13.786 0 25 11.214 25 25v52.72h87.226c13.786 0 25 11.214 25 25v49.54c0 13.784-11.214 25-25 25zM820.414 276.562v-29.968h-44.116c-0.424 16.698-6.096 32.116-15.46 44.632l45.32 30.214c8.968-12.704 14.256-28.18 14.256-44.878zM742.382 354.594c15.23 0 29.442-4.402 41.464-11.976l-46.11-30.74c-11.568 6.798-25.024 10.716-39.386 10.716h-18.924c14.212 19.384 37.134 32 62.956 32zM698.35 292.594c25.796 0 46.906-20.458 47.958-46h-71.83v29.968c0 5.4-0.242 10.746-0.69 16.032zM897.512 858.578l10-17.32-483.372-279.074c-2.498 6.244-5.34 12.312-8.468 18.206zM419.458 524.84l503.054 290.438 10-17.32-639.128-369c-2.314-1.334-5.008-1.692-7.586-1-2.58 0.69-4.736 2.346-6.072 4.66-2.756 4.776-1.116 10.904 3.66 13.66zM244.832 527.878c-11.568 6.798-25.024 10.716-39.386 10.716h-18.924c14.212 19.384 37.132 32 62.956 32 15.23 0 29.442-4.402 41.464-11.976zM253.406 462.594h-81.96v29.968c0 1.352 0.034 2.702 0.104 4.046 0.002 0.048 0.008 0.094 0.010 0.14 0.214 3.992 0.73 7.948 1.55 11.846h32.334c25.8 0 46.908-20.456 47.962-46zM313.256 537.44c6.554-9.286 11.13-20.056 13.126-31.698l-45.314-26.162c-2.536 10.144-7.044 19.51-13.13 27.646zM91.446 461.826v30.736c0 87.14 70.892 158.032 158.032 158.032 68.020 0 126.104-43.21 148.334-103.61l-44.268-25.558c-12.656 45.594-54.494 79.17-104.066 79.17-59.57 0-108.032-48.462-108.032-108.032v-30.736c0-16.12 13.114-29.232 29.232-29.232h78.028c0.642-5.134 2.294-10.222 5.040-14.976 5.342-9.252 13.968-15.872 24.288-18.638 3.446-0.922 6.942-1.38 10.416-1.38 6.932 0 13.772 1.818 19.936 5.376l99.084 57.206c-0.882-42.93-36.054-77.588-79.192-77.588h-157.6c-43.688-0.002-79.232 35.542-79.232 79.23zM328.414 245.826v30.736c0 28.386 7.57 55.014 20.736 78.056 37.866 7.36 68.814 34.322 81.784 69.874 17.28 6.516 35.98 10.102 55.512 10.102 87.14 0 158.032-70.892 158.032-158.032v-30.736c0-25.822-12.42-48.792-31.598-63.264h-252.868c-19.178 14.474-31.598 37.444-31.598 63.264z" />
<glyph unicode="&#xe935;" glyph-name="salad" d="M991.64 384h10c14.003 28.025 22.246 61.036 22.36 95.962v0.038c0 66.32-29.54 125.38-75.5 166.42-30.5 106.92-127.74 185.58-244.5 185.58-7.26 0-14.1-1.54-21.22-2.14-35.58 76.66-112.78 130.14-202.78 130.14s-167.2-53.48-202.78-130.14c-7.12 0.6-14 2.14-21.22 2.14-141.385 0-256-114.615-256-256v0c0-77.16 34.86-145.32 89.040-192h-56.68c-18.36 0-33.84-15.44-32.24-33.68 13.28-152.74 116.24-278.78 255.88-327.7v-22.62c0.182-35.385 28.909-64 64.319-64 0.035 0 0.071 0 0.106 0h384.494c35.4 0 63.080 28.66 63.080 64v23.020c138.98 49.24 242.64 174.98 255.88 327.3 1.6 18.24-13.88 33.68-32.24 33.68zM960 480c-0.192-36.395-12.746-69.821-33.672-96.332l0.252 0.332h-253.16c-20.666 26.183-33.218 59.606-33.42 95.954v0.046c0 88.366 71.634 160 160 160s160-71.634 160-160v0zM64 576c0 70.26 46 209.56 256 192 55.74 127.46 130.56 128 160 128 28.36 0 104 0 160-128 70.14 5.86 152.38 2.2 212-70.7-15.557 4.084-33.452 6.517-51.887 6.699l-0.113 0.001c-123.657-0.137-223.863-100.343-224-223.987v-0.013c0.064-34.943 8.245-67.961 22.756-97.288l-0.576 1.288h-86.18v368c0 8.837-7.163 16-16 16v0h-32c-8.837 0-16-7.163-16-16v0-322.74l-222 222c-2.895 2.893-6.894 4.683-11.31 4.683s-8.415-1.789-11.31-4.683v0l-22.7-22.58c-2.893-2.895-4.683-6.894-4.683-11.31s1.789-8.415 4.683-11.31l222-222h-146.68c-105.967 0.125-191.841 85.978-192 191.925v0.015zM747.58 83.32l-43.58-15.1v-68.22h-384v68l-42.46 15.020c-107.32 37.58-186.060 128.44-208.36 236.98h885.64c-22.24-108.14-100.54-198.86-207.24-236.68z" />
<glyph unicode="&#xe936;" glyph-name="folder1" d="M389.48 768l109.26-109.26c12-12 28.28-18.74 45.26-18.74h384c17.68 0 32-14.32 32-32v-448c0-17.68-14.32-32-32-32h-832c-17.68 0-32 14.32-32 32v576c0 17.68 14.32 32 32 32h293.48zM96 832c-53.020 0-96-42.98-96-96v-576c0-53.020 42.98-96 96-96h832c53.020 0 96 42.98 96 96v448c0 53.020-42.98 96-96 96h-384l-109.26 109.26c-12 12-28.28 18.74-45.26 18.74h-293.48z" />
<glyph unicode="&#xe937;" glyph-name="folder-open" horiz-adv-x="1152" d="M1055.9 512h-95.9v96c0 53.020-42.98 96-96 96h-320l-128 128h-320c-53.020 0-96-42.98-96-96v-576c0-53.020 42.98-96 96-96h770.114c56.136 0 108.27 29.466 137.198 77.68l134.906 224.928c38.262 63.768-7.648 145.392-82.318 145.392zM96 768h293.49l128-128h346.51c17.674 0 32-14.326 32-32v-96h-553.646c-56.136 0-108.27-29.466-137.198-77.68l-141.156-235.26v536.94c0 17.674 14.326 32 32 32zM1083.39 399.536l-134.958-224.928c-17.080-28.114-47.538-46.608-82.316-46.608-0.001 0-0.002 0-0.002 0h-776.468l164.034 273.392c17.082 28.114 47.541 46.608 82.319 46.608 0 0 0.001 0 0.001 0h719.95c24.874 0 40.238-27.136 27.44-48.464z" />
<glyph unicode="&#xe938;" glyph-name="walking" horiz-adv-x="640" d="M611 465.4l-39.2 42.2-17.4 57c-15.8 52.2-46.6 95.6-86.4 125.6 38.6 26.8 64 71.4 64 121.8 0 81.6-66.4 148-148 148s-148-66.4-148-148c0-31.4 9.8-60.6 26.6-84.6-29.4-7.6-56.8-19.6-90.6-34.8l-17.2-7.6c-48-21-86.8-60.2-109.8-110.4l-23.6-56c-14.6-34.4-11.4-71.4 8.4-101.4 19.4-29.2 52.6-47.2 87-47.2 25 0 48 9.4 65.8 25.8 0.4-2.8 0.8-5.4 1.2-8.2l-28.4-77.8-32.6-89.2-94.8-104.8c-37.4-40.8-37.4-104.8 0-145.8 19.2-21 46.4-33.2 74.4-33.2s55.2 12 74.4 33.2l93.4 102.4c19.2 21.2 34 45.8 44 73l17.4 47.8 21.2-21.4c1-1 1.6-2.6 1.8-3.8l31.2-148.4c10.2-48.6 52.2-83.6 99.8-83.6 8 0 16.2 1 24.2 3 54.8 13.8 88 69.2 76 125.8l-31.2 148.2c-5.6 26.4-15.6 51.2-29.4 73.4 3.6-0.4 7.2-0.6 11-0.6 40.6 0 77.8 25.2 94.8 64.4 17.2 39 9.4 83.2-20 115.2zM384 896c46.4 0 84-37.6 84-84s-37.6-84-84-84-84 37.6-84 84 37.6 84 84 84zM254 167.4c-7-19.4-17.6-36.8-31.2-51.8l-93.4-102.4c-7.4-8.2-17.2-12.4-27.2-12.4-9.8 0-19.6 4.2-27.2 12.4-15 16.4-15 43 0 59.4l93.4 102.4c6.2 6.8 11 14.8 14.2 23.6l32.6 89.2 0.2-0.2 2-2.4 58-58.6-21.4-59.2zM536.2 349.6c-8.8 0-18 3.6-26 12.4l-47 50.6c-10 10.8-17.6 24.2-22 38.8-22.8 75-23 79.8-35 97l-41.8-183.4 86-86.8c20.8-21.2 35.4-48.4 41.6-78.6l31.2-148.2c4.8-22.6-8-45.2-28.8-50.4-3-0.8-6-1-8.8-1-18.8 0-33.4 15.2-37.2 32.6l-31.2 148.4c-2.8 13.8-9.4 26-19 35.6l-126.2 127.8c-23.2 27.6-31.4 62.4-23.8 95.4l31.6 138.6c-18-6.4-36.2-14.6-70.8-30-16-7-29-20-36.6-36.8l-22.4-53.2c-7.4-17.4-20.2-24.6-33.2-24.6-25 0-50.4 26.8-36.4 59.8l23 54.4c16.6 36.4 43.8 63.8 77.2 78.4 68.4 30.2 97.4 45.6 153.2 45.6 72.6 0 136.6-50.6 159.6-126l20.6-67.8c0.6-2 1.6-4 3.2-5.6l46.8-50.6c28.2-30.6 1.8-72.4-27.8-72.4z" />
<glyph unicode="&#xe939;" glyph-name="volume-mute" d="M909.26 448l110.060 110.060c6.24 6.24 6.24 16.38 0 22.62l-22.62 22.62c-6.24 6.24-16.38 6.24-22.62 0l-110.080-110.040-110.060 110.060c-6.24 6.24-16.38 6.24-22.62 0l-22.62-22.62c-6.24-6.24-6.24-16.38 0-22.62l110.040-110.080-110.060-110.060c-6.24-6.24-6.24-16.38 0-22.62l22.62-22.62c6.24-6.24 16.38-6.24 22.62 0l110.080 110.040 110.060-110.060c6.24-6.24 16.38-6.24 22.62 0l22.62 22.62c6.24 6.24 6.24 16.38 0 22.62l-110.040 110.080zM463.62 832c-11.82 0-23.84-4.36-33.56-14.1l-177.94-177.9h-204.12c-26.52 0-48-21.48-48-48v-288c0-26.5 21.48-48 48-48h204.12l177.94-177.9c9.74-9.74 21.76-14.1 33.56-14.1 24.66 0 48.38 19.040 48.38 48.040v671.92c0 29.020-23.74 48.040-48.38 48.040zM448 150.66l-169.38 169.34h-214.62v256h214.62l169.38 169.34v-594.68z" />
<glyph unicode="&#xe93a;" glyph-name="volume" horiz-adv-x="960" d="M685.82 572.86c-15.62 7.6-35 0.96-42.68-15-7.62-15.94-0.88-35.060 15.060-42.68 28.24-13.58 45.8-39.3 45.8-67.18s-17.56-53.6-45.8-67.16c-15.94-7.62-22.68-26.76-15.060-42.68 7.72-16.1 27.080-22.58 42.68-15 50.68 24.28 82.18 72.12 82.18 124.84s-31.5 100.58-82.18 124.86zM463.62 832c-11.82 0-23.84-4.36-33.56-14.1l-177.94-177.9h-204.12c-26.52 0-48-21.48-48-48v-288c0-26.5 21.48-48 48-48h204.12l177.94-177.9c9.74-9.74 21.76-14.1 33.56-14.1 24.66 0 48.38 19.040 48.38 48.040v671.92c0 29.020-23.74 48.040-48.38 48.040zM448 150.66l-169.38 169.34h-214.62v256h214.62l169.38 169.34v-594.68zM960 448.020c0 132.24-68.040 253.24-177.62 315.74-15.38 8.76-35.18 3.56-44.080-11.78-8.9-15.32-3.54-34.88 11.92-43.72 89.54-51.1 145.22-150.8 145.22-260.24s-55.68-209.16-145.22-260.24c-15.44-8.84-20.8-28.4-11.92-43.72 8.6-14.76 28.12-20.88 44.080-11.78 109.58 62.48 177.62 183.48 177.62 315.74z" />
<glyph unicode="&#xe93b;" glyph-name="venus-mars" horiz-adv-x="1152" d="M576 544c0 159-129 288-288 288s-288-129-288-288c0-148.2 112-270.4 256-286.2v-129.8h-104c-13.2 0-24-10.8-24-24v-16c0-13.2 10.8-24 24-24h104v-104c0-13.2 10.8-24 24-24h16c13.2 0 24 10.8 24 24v104h104c13.2 0 24 10.8 24 24v16c0 13.2-10.8 24-24 24h-104v129.8c144 15.8 256 138 256 286.2zM64 544c0 123.8 100 224 224 224 123.8 0 224-100 224-224 0-123.8-100-224-224-224-123.8 0-224 100-224 224zM1152 936v-176c0-13.2-10.8-24-24-24h-16c-13.2 0-24 10.8-24 24v90.8l-127-127c39.4-49.4 63-111.8 63-179.8 0-159-129-288-288-288-67.4 0-129.2 23.2-178.4 61.8 13.8 16.4 26 34 36.6 52.6 39.8-32.6 89.4-50.4 141.6-50.4 124 0 224 100.2 224 224 0 124-100.2 224-224 224-52.2 0-101.8-17.8-141.6-50.4-10.6 18.6-22.8 36.4-36.6 52.6 49.2 38.6 111 61.8 178.4 61.8 68 0 130.4-23.6 179.8-63l127 127h-90.8c-13.2 0-24 10.8-24 24v16c0 13.2 10.8 24 24 24h176c13.2 0 24-10.8 24-24z" />
<glyph unicode="&#xe93c;" glyph-name="venus" horiz-adv-x="576" d="M576 608c0 159-129 288-288 288s-288-129-288-288c0-148.2 112-270.4 256-286.2v-129.8h-104c-13.2 0-24-10.8-24-24v-16c0-13.2 10.8-24 24-24h104v-104c0-13.2 10.8-24 24-24h16c13.2 0 24 10.8 24 24v104h104c13.2 0 24 10.8 24 24v16c0 13.2-10.8 24-24 24h-104v129.8c144 15.8 256 138 256 286.2zM64 608c0 123.8 100 224 224 224 123.8 0 224-100 224-224 0-123.8-100-224-224-224-123.8 0-224 100-224 224z" />
<glyph unicode="&#xe93d;" glyph-name="users" horiz-adv-x="1280" d="M1088 512c88.4 0 160 71.6 160 160s-71.6 160-160 160-160-71.6-160-160 71.6-160 160-160zM1088 768c53 0 96-43 96-96s-43-96-96-96-96 43-96 96 43 96 96 96zM640 448c123.8 0 224 100.2 224 224s-100.2 224-224 224-224-100.2-224-224 100.2-224 224-224zM640 832c88.2 0 160-71.8 160-160s-71.8-160-160-160-160 71.8-160 160 71.8 160 160 160zM1128 448h-80c-30.4 0-58.6-9.6-82.2-25.8 18.8-12.8 35.8-27.8 50.8-44.8 9.8 4.2 20.4 6.6 31.4 6.6h80c48.4 0 88-43 88-96 0-17.6 14.4-32 32-32s32 14.4 32 32c0 88.2-68.2 160-152 160zM192 512c88.4 0 160 71.6 160 160s-71.6 160-160 160-160-71.6-160-160 71.6-160 160-160zM192 768c53 0 96-43 96-96s-43-96-96-96-96 43-96 96 43 96 96 96zM800.2 408c-66.8 0-83.4-24-160.2-24s-93.4 24-160.2 24c-72.6 0-143.2-32.4-184.6-93.8-24.8-36.8-39.2-81-39.2-128.6v-89.6c0-53 43-96 96-96h576c53 0 96 43 96 96v89.6c0 47.6-14.4 91.8-39.2 128.6-41.4 61.4-112 93.8-184.6 93.8zM960 96c0-17.6-14.4-32-32-32h-576c-17.6 0-32 14.4-32 32v89.6c0 33.2 9.8 65.4 28.2 92.8 27.6 41 76.8 65.6 131.4 65.6 54.8 0 74.4-24 160.4-24s105.6 24 160.2 24c54.6 0 103.8-24.6 131.4-65.6 18.4-27.4 28.2-59.6 28.2-92.8v-89.6zM314.2 422.2c-23.8 16.2-52 25.8-82.2 25.8h-80c-83.8 0-152-71.8-152-160 0-17.6 14.4-32 32-32s32 14.4 32 32c0 53 39.6 96 88 96h80c11 0 21.6-2.4 31.4-6.6 15 17 32.2 32 50.8 44.8z" />
<glyph unicode="&#xe93e;" glyph-name="user-tie" horiz-adv-x="896" d="M448 448c141.4 0 256 114.6 256 256s-114.6 256-256 256-256-114.6-256-256 114.6-256 256-256zM448 896c105.8 0 192-86.2 192-192s-86.2-192-192-192-192 86.2-192 192 86.2 192 192 192zM631.8 351.6l-79.4-275.6-67.8 203.4 50 50c20.2 20.2 5.8 54.6-22.6 54.6h-128c-28.6 0-42.8-34.4-22.6-54.6l50-50-67.8-203.4-79.4 275.4c-146.4-2.4-264.2-121.4-264.2-268.2v-51.2c0-53 43-96 96-96h704c53 0 96 43 96 96v51.2c0 146.8-117.8 265.8-264.2 268.4zM96 0c-17.6 0-32 14.4-32 32v51.2c0 94.4 65.6 175 153.8 197.8l81.2-281h-203zM385.8 0l62.2 186.8 62.2-186.8h-124.4zM832 32c0-17.6-14.4-32-32-32h-203l81 281c88.2-22.8 153.8-103.4 153.8-197.8v-51.2z" />
<glyph unicode="&#xe93f;" glyph-name="user-headset" horiz-adv-x="896" d="M640 256h-9.4c-24.32 0-48-5.8-71-13.6-33.294-11.676-71.679-18.42-111.64-18.42s-78.346 6.745-114.080 19.158l2.44-0.738c-22.96 7.8-46.58 13.56-70.84 13.56h-9.48c-141.371 0-255.977-114.592-256-255.958v-0.002c0-35.346 28.654-64 64-64v0h768c35.346 0 64 28.654 64 64v0c0 141.385-114.615 256-256 256v0zM64 0c0.114 105.993 86.007 191.886 191.989 192h9.491c13.84 0 29.84-3.24 50.32-10.18 39.414-13.818 84.855-21.8 132.16-21.8s92.746 7.982 135.049 22.673l-2.889-0.873c20.62 6.98 36.66 10.22 50.48 10.22h9.4c105.993-0.114 191.886-86.007 192-191.989v-0.011zM96 512c17.673 0 32 14.327 32 32v0 32c0 176.44 143.56 320 320 320s320-143.56 320-320v-32c-0.102-88.324-71.676-159.898-159.99-160h-64.010c0 35.346-28.654 64-64 64v0h-64c-35.346 0-64-28.654-64-64s28.654-64 64-64v0h192c123.648 0.159 223.841 100.352 224 223.985v32.015c0 211.76-172.24 384-384 384s-384-172.24-384-384v-32c0-17.673 14.327-32 32-32v0zM448 768c0.253 0.001 0.553 0.002 0.853 0.002 105.564 0 191.14-85.576 191.14-191.14 0-49.493-18.811-94.592-49.673-128.538l0.14 0.156c0-0.18 0.26-0.3 0.36-0.48h17.18c34.065 0.077 63.945 17.926 80.867 44.764l0.233 0.396c8.9 26.12 14.9 53.68 14.9 82.84 0 141.385-114.615 256-256 256s-256-114.615-256-256v0c0-80.84 38.2-152 96.7-198.94-0.12 2.34-0.7 4.56-0.7 6.94 0.156 23.646 6.776 45.714 18.177 64.566l-0.317-0.566c-30.97 33.854-49.944 79.132-49.944 128.842 0 105.575 85.585 191.16 191.16 191.16 0.325 0 0.65-0.001 0.975-0.002h-0.050z" />
<glyph unicode="&#xe940;" glyph-name="user-circle" horiz-adv-x="992" d="M496 944c-274 0-496-222-496-496s222-496 496-496 496 222 496 496-222 496-496 496zM752 100.8c-71.8-53-160.2-84.8-256-84.8s-184.2 31.8-256 84.8v27.2c0 70.6 57.4 128 128 128 22.2 0 55-22.8 128-22.8 73.2 0 105.6 22.8 128 22.8 70.6 0 128-57.4 128-128v-27.2zM813.2 155.8c-13.6 92.8-92.6 164.2-189.2 164.2-41 0-60.8-22.8-128-22.8s-86.8 22.8-128 22.8c-96.6 0-175.6-71.4-189.2-164.2-71 77-114.8 179.4-114.8 292.2 0 238.2 193.8 432 432 432s432-193.8 432-432c0-112.8-43.8-215.2-114.8-292.2zM496 720c-97.2 0-176-78.8-176-176s78.8-176 176-176 176 78.8 176 176-78.8 176-176 176zM496 432c-61.8 0-112 50.2-112 112s50.2 112 112 112 112-50.2 112-112-50.2-112-112-112z" />
<glyph unicode="&#xe941;" glyph-name="user" horiz-adv-x="896" d="M627.2 384c-57.4 0-85-32-179.2-32s-121.6 32-179.2 32c-148.4 0-268.8-120.4-268.8-268.8v-83.2c0-53 43-96 96-96h704c53 0 96 43 96 96v83.2c0 148.4-120.4 268.8-268.8 268.8zM832 32c0-17.6-14.4-32-32-32h-704c-17.6 0-32 14.4-32 32v83.2c0 113 91.8 204.8 204.8 204.8 39.2 0 78.2-32 179.2-32 100.8 0 140 32 179.2 32 113 0 204.8-91.8 204.8-204.8v-83.2zM448 448c141.4 0 256 114.6 256 256s-114.6 256-256 256-256-114.6-256-256 114.6-256 256-256zM448 896c105.8 0 192-86.2 192-192s-86.2-192-192-192-192 86.2-192 192 86.2 192 192 192z" />
<glyph unicode="&#xe942;" glyph-name="undo" d="M40 944h20c13.254 0 24-10.746 24-24v-221.25c86.392 147.156 246.478 245.82 429.586 245.248 272.774-0.854 494.84-224.016 494.414-496.79-0.428-273.57-222.332-495.208-496-495.208-127.852 0-244.404 48.374-332.356 127.816-10.226 9.236-10.708 25.122-0.964 34.866l14.138 14.138c9.006 9.006 23.498 9.428 32.964 0.908 75.782-68.204 176.088-109.728 286.218-109.728 235.488 0 428 190.662 428 428 0 235.488-190.662 428-428 428-165.724 0-309.474-94.154-380.578-232h228.578c13.254 0 24-10.746 24-24v-20c0-13.254-10.746-24-24-24h-320c-13.254 0-24 10.746-24 24v320c0 13.254 10.746 24 24 24z" />
<glyph unicode="&#xe943;" glyph-name="underline" horiz-adv-x="896" d="M880 960h-288c-8.837 0-16-7.163-16-16v0-32c0-8.837 7.163-16 16-16v0h112v-448c0-141.385-114.615-256-256-256s-256 114.615-256 256v0 448h112c8.837 0 16 7.163 16 16v0 32c0 8.837-7.163 16-16 16v0h-288c-8.837 0-16-7.163-16-16v0-32c0-8.837 7.163-16 16-16v0h112v-448c0-176.44 143.56-320 320-320s320 143.56 320 320v448h112c8.837 0 16 7.163 16 16v0 32c0 8.837-7.163 16-16 16v0zM880 0h-864c-8.837 0-16-7.163-16-16v0-32c0-8.837 7.163-16 16-16v0h864c8.837 0 16 7.163 16 16v0 32c0 8.837-7.163 16-16 16v0z" />
<glyph unicode="&#xe944;" glyph-name="trophy-alt" horiz-adv-x="1152" d="M741 682.2l-100.4 14.6-45 91c-8 16.2-31.4 16.4-39.4 0l-45-91-100.4-14.6c-18-2.6-25.2-24.8-12.2-37.6l72.6-70.8-17.2-100c-3-17.8 15.8-31.6 32-23.2l89.8 47.2 89.8-47.2c16-8.4 35 5.2 32 23.2l-17.2 100 72.6 70.8c13.4 12.8 6 35-12 37.6zM620.4 593.4l10.4-61.2-54.8 28.8-55-28.8 10.4 61.2-44.4 43.2 61.4 9 27.4 55.6 27.4-55.6 61.4-9-44.2-43.2zM896 832v104c0 13.2-10.8 24-24 24h-592c-13.2 0-24-10.8-24-24v-104h-232c-13.2 0-24-10.8-24-24v-123.2c0-124.2 136.2-268.8 321.4-296.2 58.8-121.4 147.4-180.6 222.6-193.8v-194.8h-172c-28.8 0-52-23.4-52-52.2 0-6.6 5.4-11.8 12-11.8h488c6.6 0 12 5.2 12 11.8 0 28.8-23.2 52.2-52 52.2h-172v194.8c75.4 13.2 163.8 72.4 222.6 193.8 185.4 27.4 321.4 172.2 321.4 296.2v123.2c0 13.2-10.8 24-24 24h-232zM64 684.8v83.2h192v-48c0-103.6 14-189.8 37-260.4-137.2 35.4-229 144.4-229 225.2zM576 256c-144 0-256 208-256 464v176h512v-176c0-256-112-464-256-464zM1088 684.8c0-80.8-92-189.8-229-225.2 23 70.6 37 156.8 37 260.4v48h192v-83.2z" />
<glyph unicode="&#xe945;" glyph-name="trophy" horiz-adv-x="1152" d="M896 832v104c0 13.2-10.8 24-24 24h-592c-13.2 0-24-10.8-24-24v-104h-232c-13.2 0-24-10.8-24-24v-123.2c0-124.2 136.2-268.8 321.4-296.2 58.8-121.4 147.4-180.6 222.6-193.8v-194.8h-172c-28.8 0-52-23.4-52-52.2 0-6.6 5.4-11.8 12-11.8h488c6.6 0 12 5.2 12 11.8 0 28.8-23.2 52.2-52 52.2h-172v194.8c75.4 13.2 163.8 72.4 222.6 193.8 185.4 27.4 321.4 172.2 321.4 296.2v123.2c0 13.2-10.8 24-24 24h-232zM64 684.8v83.2h192v-48c0-103.6 14-189.8 37-260.4-137.2 35.4-229 144.4-229 225.2zM576 256c-144 0-256 208-256 464v176h512v-176c0-256-112-464-256-464zM1088 684.8c0-80.8-92-189.8-229-225.2 23 70.6 37 156.8 37 260.4v48h192v-83.2z" />
<glyph unicode="&#xe946;" glyph-name="tree-palm" horiz-adv-x="1280" d="M929.5 832c-89.24 0-174.24-29.58-239.74-79.72-42.8 119.72-178.54 207.72-339.26 207.72-175.8 0-322.8-102.54-349.42-243.78-7.36-39.1 23.82-76.22 66.92-76.22h119.26l68.74 55.040 26.58-21.3c-1.14-1.12-2.44-2-3.58-3.080-124.38-124.38-155.76-300.78-74.7-419.44 22-32.16 69.78-38.1 102.2-5.54l241.26 264.44c6-203.42-40.68-403.86-65.44-493.18-1.513-5.173-2.384-11.115-2.384-17.261 0-35.044 28.308-63.477 63.305-63.679h180.879c0.059 0 0.13 0 0.2 0 31.518 0 57.658 23.028 62.512 53.178l0.048 0.363c30 186 3.36 385.42-24.98 522.46h179.34l50.76 50.76 50.74-50.76h169.26c42.92 0 74.28 36.88 66.92 76.22-26.62 141.24-173.62 243.78-349.42 243.78zM256 776.96l-91.18-72.96-100.82 0.34c20.58 109.26 143.76 191.66 286.5 191.66 107.36 0 200.7-45.76 250.68-113.14-86.44 16.58-184.7-6.96-268.62-67.1zM257.18 287.32c-62.74 91.78-33.88 237.12 67.060 338 65 64.98 146.94 99.6 221.68 99.6 0.64 0.007 1.396 0.011 2.153 0.011 32.822 0 63.879-7.553 91.529-21.017l-1.242 0.546zM724.12 0l-180.12-0.1c28.26 101.82 84.64 342.9 64.58 576.92l56.28 61.68c24.24-84.3 100.6-380.5 59.26-638.5zM1069.24 576l-77.24 77.24-77.26-77.24h-167.060c-17.54 72.88-31.72 114.26-32.3 116 55.58 48 132.82 76 214.12 76 142.74 0 266-82.4 282.5-192z" />
<glyph unicode="&#xe947;" glyph-name="tree-christmas" d="M608 256c-53 0-96-43-96-96s43-96 96-96 96 43 96 96-43 96-96 96zM608 128c-17.6 0-32 14.4-32 32s14.4 32 32 32 32-14.4 32-32-14.4-32-32-32zM544 416c0 53-43 96-96 96s-96-43-96-96 43-96 96-96 96 43 96 96zM448 384c-17.6 0-32 14.4-32 32s14.4 32 32 32 32-14.4 32-32-14.4-32-32-32zM1010.6 39.2l-169 217.4c21 3.2 39.4 16.6 48.6 36.2 10.6 22.4 7.2 49-8.8 68.2l-268.2 322 55.8 27.8c21.6 10.8 35.4 33 35.4 57.2s-13.6 46.4-35.4 57.2l-66.2 33.2-33.2 66.2c-11.2 21.8-33.4 35.4-57.6 35.4s-46.4-13.6-57.2-35.4l-33.2-66.2-66.2-33.2c-21.8-10.8-35.4-33-35.4-57.2s13.6-46.4 35.4-57.2l55.8-27.8-268.2-322c-15.8-19-19.4-45.6-8.8-68.2 9.2-19.6 27.6-33 48.6-36.2l-169.4-217.4c-15-19.2-17.8-45.4-7-67.4s33.2-35.8 57.6-35.8h896c24.4 0 46.8 14 57.4 35.8s8.2 48.2-6.8 67.4zM384 768l85.4 42.6 42.6 85.4 42.6-85.4 85.4-42.6-85.4-42.6-42.6-85.4-42.6 85.4-85.4 42.6zM64 0l248.8 320h-120.8l255.2 306.4 7.4-15c10.8-21.6 33-35.4 57.2-35.4s46.4 13.6 57.2 35.4l7.4 15 255.6-306.4h-120.8l248.8-320h-896z" />
<glyph unicode="&#xe948;" glyph-name="tree-alt" d="M919.88 554.040c5.38 17.72 8.12 35.78 8.12 53.96 0 105.88-86.12 192-192 192-11.5 0-22.88-1.060-34.18-3.12-13.94 92.22-93.76 163.12-189.82 163.12s-175.88-70.9-189.82-163.12c-10.273 1.977-22.091 3.112-34.173 3.12h-0.007c-105.88 0-192-86.12-192-192 0-18.18 2.76-36.24 8.12-53.96-63.44-32.38-104.12-97.1-104.12-170.040 0-105.88 86.12-192 192-192h224v-112.9l-48.4-96.8c-10.64-21.28 4.84-46.32 28.62-46.32h231.56c23.78 0 39.26 25.040 28.62 46.32l-48.4 96.8v112.9h224c105.88 0 192 86.12 192 192 0 72.94-40.68 137.66-104.12 170.040zM448 0l32 64v128h64v-128l32-64h-128zM832 256h-640c-70.56 0-128 57.4-128 128 0 56.24 36.56 105.18 90.94 121.76l36.32 11.060-17.060 33.94c-9.38 18.74-14.2 38.020-14.2 57.24 0 70.6 57.44 128 128 128 28.68 0 39.9-5.88 102.32-33.96-5.8 63.4-4.56 50.84-6.32 65.96 0 70.6 57.44 128 128 128s128-57.4 127.5-132.84l-5.82-61.12c56.48 25.4 70.52 33.96 102.32 33.96 70.56 0 128-57.4 128-128 0-19.22-4.82-38.5-14.18-57.24l-17.060-33.94 36.32-11.060c54.36-16.58 90.92-65.52 90.92-121.76 0-70.6-57.44-128-128-128z" />
<glyph unicode="&#xe949;" glyph-name="tree" horiz-adv-x="896" d="M888.18 181.080l-148.24 171.1h60.060c12.44 0 23.82 7.22 29 18.54 5.24 11.32 3.5 24.64-4.56 34.14l-145 171.42h56.56c12.62 0 24.060 7.44 29.24 18.98 5.12 11.56 3 25.040-5.44 34.46l-288 320.14c-12.24 13.5-35.38 13.5-47.62 0l-288-320.14c-5.088-5.659-8.199-13.184-8.199-21.436 0-4.715 1.016-9.193 2.841-13.226l-0.082 0.202c5.18-11.54 16.62-18.98 29.24-18.98h56.56l-145-171.42c-8.060-9.5-9.82-22.82-4.56-34.14 5.18-11.32 16.56-18.54 29-18.54h60.060l-148.22-171.1c-8.18-9.48-10.12-22.88-4.94-34.26 5.24-11.42 16.62-18.72 29.12-18.72h320v-48.92l-48.4-96.84c-10.64-21.28 4.84-46.34 28.62-46.34h231.56c23.78 0 39.26 25.040 28.62 46.34l-48.4 96.84v48.92h320c12.5 0 23.88 7.32 29.12 18.72 5.2 11.38 3.26 24.78-4.94 34.26zM384 0.040l32 64.020v64.040h64v-64.040l32-64.020h-128zM101.56 192l192 224h-128.56l189.56 224h-122.68l216.12 240.16 216.12-240.16h-122.68l189.56-224h-128.56l192-224h-692.88z" />
<glyph unicode="&#xe94a;" glyph-name="times-square" horiz-adv-x="896" d="M800 896h-704c-53 0-96-43-96-96v-704c0-53 43-96 96-96h704c53 0 96 43 96 96v704c0 53-43 96-96 96zM832 96c0-17.6-14.4-32-32-32h-704c-17.6 0-32 14.4-32 32v704c0 17.6 14.4 32 32 32h704c17.6 0 32-14.4 32-32v-704zM637.6 586.6l-138.6-138.6 138.6-138.6c9.4-9.4 9.4-24.6 0-34l-17-17c-9.4-9.4-24.6-9.4-34 0l-138.6 138.6-138.6-138.6c-9.4-9.4-24.6-9.4-34 0l-17 17c-9.4 9.4-9.4 24.6 0 34l138.6 138.6-138.6 138.6c-9.4 9.4-9.4 24.6 0 34l17 17c9.4 9.4 24.6 9.4 34 0l138.6-138.6 138.6 138.6c9.4 9.4 24.6 9.4 34 0l17-17c9.2-9.4 9.2-24.6 0-34z" />
<glyph unicode="&#xe94b;" glyph-name="times-circle" d="M512 944c-274 0-496-222-496-496s222-496 496-496 496 222 496 496-222 496-496 496zM512 16c-237.4 0-432 192.2-432 432 0 237.4 192.2 432 432 432 237.4 0 432-192.2 432-432 0-237.4-192.2-432-432-432zM701.6 586.6l-138.6-138.6 138.6-138.6c9.4-9.4 9.4-24.6 0-34l-17-17c-9.4-9.4-24.6-9.4-34 0l-138.6 138.6-138.6-138.6c-9.4-9.4-24.6-9.4-34 0l-17 17c-9.4 9.4-9.4 24.6 0 34l138.6 138.6-138.6 138.6c-9.4 9.4-9.4 24.6 0 34l17 17c9.4 9.4 24.6 9.4 34 0l138.6-138.6 138.6 138.6c9.4 9.4 24.6 9.4 34 0l17-17c9.2-9.4 9.2-24.6 0-34z" />
<glyph unicode="&#xe94c;" glyph-name="times" horiz-adv-x="640" d="M387.88 448l247.42 247.42c6.24 6.24 6.24 16.38 0 22.62l-45.26 45.26c-6.24 6.24-16.38 6.24-22.62 0l-247.42-247.42-247.42 247.44c-6.24 6.24-16.38 6.24-22.62 0l-45.28-45.26c-6.24-6.24-6.24-16.38 0-22.62l247.44-247.44-247.44-247.42c-6.24-6.24-6.24-16.38 0-22.62l45.26-45.26c6.24-6.24 16.38-6.24 22.62 0l247.44 247.42 247.42-247.42c6.24-6.24 16.38-6.24 22.62 0l45.26 45.26c6.24 6.24 6.24 16.38 0 22.62l-247.42 247.42z" />
<glyph unicode="&#xe94d;" glyph-name="thumbs-down" d="M993.312 507.366c10.996 44.672 5.656 99.76-19.254 138.81 8.628 47.536-6.198 98.754-36.45 134.21 3.84 107.81-62.108 179.614-180.672 179.586-6.726 0.060-71.016 0.006-82.026 0-153.724 0.042-283.076-79.972-354.91-79.972h-21.69c-11.28 9.95-26.084 16-42.31 16h-192c-35.346 0-64-28.654-64-64v-512c0-35.346 28.654-64 64-64h192c35.346 0 64 28.654 64 64v24.962c1.7-0.532 3.306-1.098 4.764-1.712 43.236-23.25 115.208-137.75 162.348-184.89 19.8-19.8 26.236-52.88 33.050-87.902 11.406-58.622 33.668-134.458 93.658-134.458 119.216 0 165.818 69.344 165.818 186.16 0 61.812-23.95 104.898-41.39 139.634h140.3c81.308 0 145.452 69.792 145.454 145.142-0.002 41.064-10.836 74.682-30.69 100.43zM256 320h-192v512h192v-512zM878.546 325.796h-223.998c0-81.454 61.090-119.256 61.090-203.634 0-51.148 0-122.182-101.818-122.182-40.726 40.728-20.364 142.544-81.454 203.634-57.214 57.214-142.544 203.636-203.636 203.636h-8.73v407.27h8.73c69.402 0 203.636 81.454 346.18 81.454 6.96 0 74.83 0.060 81.454 0 76.502-0.736 131.010-36.868 114.424-141.948 32.734-17.56 57.076-78.47 30.030-123.992 43.182-22.034 43.182-118.034 11.216-141.33 31.966-8.704 48.166-40.728 47.966-81.454-0.2-40.728-35.994-81.454-81.454-81.454zM208 416c0-26.51-21.49-48-48-48s-48 21.49-48 48 21.49 48 48 48 48-21.49 48-48z" />
<glyph unicode="&#xe94e;" glyph-name="tachometer-alt" horiz-adv-x="1152" d="M576 656c26.52 0 48 21.48 48 48s-21.48 48-48 48-48-21.48-48-48 21.48-48 48-48zM304 640c-26.52 0-48-21.48-48-48s21.48-48 48-48 48 21.48 48 48-21.48 48-48 48zM848 640c-26.52 0-48-21.48-48-48s21.48-48 48-48 48 21.48 48 48-21.48 48-48 48zM960 368c-26.52 0-48-21.48-48-48s21.48-48 48-48 48 21.48 48 48-21.48 48-48 48zM576 896c-318.12 0-576-257.88-576-576 0-105.6 28.5-204.52 78.12-289.6 11.22-19.24 32.6-30.4 54.88-30.4h886c22.28 0 43.66 11.16 54.88 30.4 49.62 85.080 78.12 184 78.12 289.6 0 318.12-257.88 576-576 576zM1019 64l-885.6-1.36c-45.4 77.86-69.4 166.84-69.4 257.36 0 282.32 229.68 512 512 512s512-229.68 512-512c0-90.52-24-179.5-69-256zM192 368c-26.52 0-48-21.48-48-48s21.48-48 48-48 48 21.48 48 48-21.48 48-48 48zM730.44 702.24c-16.38 5.56-34.88-3.1-40.68-19.78l-103.66-299.48c-3.38 0.26-6.62 1.020-10.080 1.020-70.7 0-128-57.3-128-128s57.3-128 128-128 128 57.3 128 128c0 44.5-22.76 83.64-57.24 106.58l103.48 298.96c5.74 16.68-3.080 34.92-19.82 40.7zM576 192c-35.28 0-64 28.72-64 64s28.72 64 64 64 64-28.72 64-64-28.72-64-64-64z" />
<glyph unicode="&#xe94f;" glyph-name="sync" d="M984 944h-20c-13.254 0-24-10.746-24-24v-221.254c-86.142 146.732-245.552 245.254-428 245.254-265.544 0-482.352-208.676-495.38-470.986-0.678-13.636 10.33-25.014 23.982-25.014h20.032c12.706 0 23.292 9.898 23.954 22.586 11.726 224.982 197.606 405.414 427.412 405.414 165.724 0 309.474-94.154 380.578-232h-228.578c-13.254 0-24-10.746-24-24v-20c0-13.254 10.746-24 24-24h320c13.254 0 24 10.746 24 24v320c0 13.254-10.746 24-24 24zM983.398 448h-20.030c-12.704 0-23.294-9.898-23.954-22.586-11.732-225.73-198.322-405.414-427.414-405.414-165.216 0-309.344 93.904-380.598 232h228.598c13.254 0 24 10.746 24 24v20c0 13.254-10.746 24-24 24h-320c-13.254 0-24-10.746-24-24v-320c0-13.254 10.746-24 24-24h20c13.254 0 24 10.746 24 24v221.254c86.142-146.732 245.554-245.254 428-245.254 265.546 0 482.352 208.676 495.38 470.986 0.678 13.636-10.33 25.014-23.982 25.014z" />
<glyph unicode="&#xe950;" glyph-name="sun" d="M512 672.6c-123.6 0-224-100.6-224-224.2s100.4-224.2 224-224.2 224 100.6 224 224.2-100.4 224.2-224 224.2zM512 288.2c-88.2 0-160 71.8-160 160.2s71.8 160.2 160 160.2 160-71.8 160-160.2-71.8-160.2-160-160.2zM1024 448.4c0 10.6-5.4 20.6-14.2 26.6l-165.8 111 38.8 195.8c2 10.4-1.2 21.4-8.8 28.8-7.6 7.6-18.2 11-28.8 8.8l-195.6-38.8-111 166c-12 17.8-41.2 17.8-53.2 0l-111-166-195.6 39c-10.6 2.2-21.2-1.2-28.8-8.8s-10.8-18.4-8.8-28.8l38.8-196-165.8-111c-8.8-6-14.2-16-14.2-26.6s5.4-20.6 14.2-26.6l165.8-111-38.8-195.8c-2-10.4 1.2-21.4 8.8-28.8 7.6-7.6 18.2-11 28.8-8.8l195.6 38.8 111-166c6-9 16-14.2 26.6-14.2s20.6 5.4 26.6 14.2l111 166 195.6-38.8c10.8-2.4 21.4 1.2 28.8 8.8 7.6 7.6 10.8 18.4 8.8 28.8l-38.8 195.8 165.8 111c8.8 6 14.2 16 14.2 26.6zM790.6 352.2c-10.8-7.2-16-20.2-13.6-32.8l33.6-169.8-169.6 33.6c-13.2 2.8-25.6-2.8-32.8-13.6l-96.2-144-96.2 143.8c-6 9-16 14.2-26.6 14.2-2 0-4.2-0.2-6.2-0.6l-169.6-33.6 33.6 169.8c2.4 12.6-2.8 25.6-13.6 32.8l-143.8 96.2 143.8 96.4c10.8 7.2 16 20.2 13.6 32.8l-33.6 169.8 169.6-33.6c13-2.6 25.6 2.8 32.8 13.6l96.2 144 96.2-144c7.2-10.8 19.8-16.2 32.8-13.6l169.6 33.6-33.6-169.8c-2.4-12.6 2.8-25.6 13.6-32.8l143.8-96.4-143.8-96z" />
<glyph unicode="&#xe951;" glyph-name="subway" horiz-adv-x="896" d="M224 192c53.020 0 96 42.98 96 96s-42.98 96-96 96-96-42.98-96-96 42.98-96 96-96zM224 320c17.646 0 32-14.354 32-32s-14.354-32-32-32-32 14.354-32 32 14.354 32 32 32zM672 192c53.020 0 96 42.98 96 96s-42.98 96-96 96-96-42.98-96-96 42.98-96 96-96zM672 320c17.646 0 32-14.354 32-32s-14.354-32-32-32-32 14.354-32 32 14.354 32 32 32zM640 960h-384c-128 0-256-85.962-256-192v-512c0-94.338 101.312-172.782 213.8-188.946l-110.57-110.57c-7.56-7.56-2.206-20.486 8.486-20.486h51.596c6.364 0 12.47 2.528 16.97 7.030l120.972 120.972h293.49l120.972-120.97c4.343-4.343 10.343-7.029 16.97-7.030h51.596c10.69 0 16.044 12.926 8.486 20.486l-110.568 110.57c112.488 16.162 213.8 94.606 213.8 188.944v512c0 106.038-126 192-256 192zM64 704h352v-192h-352v192zM832 256c0-64.598-95.104-128-192-128h-384c-96.896 0-192 63.402-192 128v192h768v-192zM832 512h-352v192h352v-192zM64 768c0 64.598 95.104 128 192 128h384c116.474 0 192-75.762 192-128h-768z" />
<glyph unicode="&#xe952;" glyph-name="street-view" d="M736 239.7v-61.74c124.54-16.84 208-47.2 208-81.98 0-53.020-193.42-96-432-96s-432 43-432 96.020c0 34.76 83.46 65.12 208 81.98v61.74c-170.36-26-288-80.5-288-143.72 0-88.36 229.24-160 512-160s512 71.64 512 160c0 63.22-117.64 117.72-288 143.7zM352 320v-160c0-52.94 43.060-96 96-96h128c52.94 0 96 43.060 96 96v160c52.94 0 96 43.060 96 96v128c0 69.060-44.22 127.5-105.64 149.86 15.92 26.46 25.64 57.060 25.64 90.14 0 97.040-78.96 176-176 176s-176-78.96-176-176c0-33.080 9.72-63.68 25.64-90.14-61.42-22.36-105.64-80.8-105.64-149.86v-128c0-52.94 43.060-96 96-96zM512 896c61.86 0 112-50.14 112-112s-50.14-112-112-112-112 50.14-112 112 50.14 112 112 112zM320 544c0 51.52 40.88 93.36 91.86 95.58 28.48-19.8 62.9-31.58 100.14-31.58s71.66 11.78 100.14 31.58c50.98-2.22 91.86-44.060 91.86-95.58v-128c0-17.66-14.38-32-32-32h-64v-224c0-17.66-14.38-32-32-32h-128c-17.62 0-32 14.34-32 32v224h-64c-17.62 0-32 14.34-32 32v128z" />
<glyph unicode="&#xe953;" glyph-name="stopwatch" horiz-adv-x="896" d="M786.6 677.4l35 35c9.4 9.4 9.4 24.6 0 34l-11.4 11.4c-9.4 9.4-24.6 9.4-34 0l-35-35c-71.6 62-163 101.8-263.4 108.4v64.8h50c13.2 0 24 10.8 24 24v16c0 13.2-10.8 24-24 24h-160c-13.2 0-24-10.8-24-24v-16c0-13.2 10.8-24 24-24h46v-65.2c-231.4-17.4-413.8-210.8-413.8-446.8 0-247.4 200.6-448 448-448s448 200.6 448 448c0 112.2-41.2 214.8-109.4 293.4zM448 0c-212.2 0-384 171.8-384 384s171.8 384 384 384 384-171.8 384-384-171.8-384-384-384zM456 256h-16c-13.2 0-24 10.8-24 24v336c0 13.2 10.8 24 24 24h16c13.2 0 24-10.8 24-24v-336c0-13.2-10.8-24-24-24z" />
<glyph unicode="&#xe954;" glyph-name="stop" horiz-adv-x="896" d="M800 896h-704c-53 0-96-43-96-96v-704c0-53 43-96 96-96h704c53 0 96 43 96 96v704c0 53-43 96-96 96zM832 96c0-17.6-14.4-32-32-32h-704c-17.6 0-32 14.4-32 32v704c0 17.6 14.4 32 32 32h704c17.6 0 32-14.4 32-32v-704z" />
<glyph unicode="&#xe955;" glyph-name="stop-circle" d="M512-48c274 0 496 222 496 496s-222 496-496 496-496-222-496-496 222-496 496-496zM80 448c0 237.4 192.2 432 432 432 237.4 0 432-192.2 432-432 0-237.4-192.2-432-432-432-237.4 0-432 192.2-432 432zM672 640h-320c-17.6 0-32-14.4-32-32v-320c0-17.6 14.4-32 32-32h320c17.6 0 32 14.4 32 32v320c0 17.6-14.4 32-32 32zM640 320h-256v256h256v-256z" />
<glyph unicode="&#xe956;" glyph-name="sort-up" horiz-adv-x="640" d="M64.064 512h511.86c56.85 0 85.534 68.976 45.254 109.254l-255.924 256c-24.992 24.992-65.516 24.994-90.51 0l-255.936-256c-40.198-40.198-11.708-109.254 45.256-109.254zM320 832l256-256h-512l256 256z" />
<glyph unicode="&#xe957;" glyph-name="sort-down" horiz-adv-x="640" d="M575.936 384h-511.86c-56.85 0-85.534-68.976-45.254-109.254l255.924-256c24.992-24.992 65.516-24.994 90.51 0l255.936 256c40.198 40.198 11.708 109.254-45.256 109.254zM320 64l-256 256h512l-256-256z" />
<glyph unicode="&#xe958;" glyph-name="sort-amount-up-alt" d="M528 512h224c8.837 0 16 7.163 16 16v0 32c0 8.837-7.163 16-16 16v0h-224c-8.837 0-16-7.163-16-16v0-32c0-8.837 7.163-16 16-16v0zM528 320h352c8.837 0 16 7.163 16 16v0 32c0 8.837-7.163 16-16 16v0h-352c-8.837 0-16-7.163-16-16v0-32c0-8.837 7.163-16 16-16v0zM528 704h96c8.837 0 16 7.163 16 16v0 32c0 8.837-7.163 16-16 16v0h-96c-8.837 0-16-7.163-16-16v0-32c0-8.837 7.163-16 16-16v0zM1008 192h-480c-8.837 0-16-7.163-16-16v0-32c0-8.837 7.163-16 16-16v0h480c8.837 0 16 7.163 16 16v0 32c0 8.837-7.163 16-16 16v0zM240.88 888.98c-4.32 4.312-10.284 6.979-16.87 6.979s-12.55-2.667-16.87-6.979v0l-168-164.64c-4.415-4.355-7.149-10.403-7.149-17.090 0-6.598 2.662-12.573 6.971-16.912l-0.001 0.001 11.22-11.36c4.33-4.395 10.347-7.117 17-7.117 6.563 0 12.508 2.65 16.822 6.939l-0.001-0.001 108 105.48v-768.28c0-8.837 7.163-16 16-16v0h32c8.837 0 16 7.163 16 16v0 767.84l107.88-104.7c4.338-4.313 10.318-6.979 16.92-6.979s12.582 2.666 16.921 6.98l-0.001-0.001 11.28 11.32c4.361 4.346 7.059 10.358 7.059 17s-2.698 12.654-7.058 16.999l-0.001 0.001z" />
<glyph unicode="&#xe959;" glyph-name="sort-amount-up" d="M624 192h-96c-8.837 0-16-7.163-16-16v0-32c0-8.837 7.163-16 16-16v0h96c8.837 0 16 7.163 16 16v0 32c0 8.837-7.163 16-16 16v0zM752 384h-224c-8.837 0-16-7.163-16-16v0-32c0-8.837 7.163-16 16-16v0h224c8.837 0 16 7.163 16 16v0 32c0 8.837-7.163 16-16 16v0zM1008 768h-480c-8.837 0-16-7.163-16-16v0-32c0-8.837 7.163-16 16-16v0h480c8.837 0 16 7.163 16 16v0 32c0 8.837-7.163 16-16 16v0zM880 576h-352c-8.837 0-16-7.163-16-16v0-32c0-8.837 7.163-16 16-16v0h352c8.837 0 16 7.163 16 16v0 32c0 8.837-7.163 16-16 16v0zM240.88 888.98c-4.32 4.312-10.284 6.979-16.87 6.979s-12.55-2.667-16.87-6.979v0l-168-164.64c-4.415-4.355-7.149-10.403-7.149-17.090 0-6.598 2.662-12.573 6.971-16.912l-0.001 0.001 11.22-11.36c4.33-4.395 10.347-7.117 17-7.117 6.563 0 12.508 2.65 16.822 6.939l-0.001-0.001 108 105.48v-768.28c0-8.837 7.163-16 16-16v0h32c8.837 0 16 7.163 16 16v0 767.84l107.88-104.7c4.338-4.313 10.318-6.979 16.92-6.979s12.582 2.666 16.921 6.98l-0.001-0.001 11.28 11.32c4.361 4.346 7.059 10.358 7.059 17s-2.698 12.654-7.058 16.999l-0.001 0.001z" />
</font>
</defs>
</svg>
